<svg xmlns="http://www.w3.org/2000/svg" xmlns:xlink="http://www.w3.org/1999/xlink" viewBox="0 0 196.18 482.97"><defs><style>.cls-1{isolation:isolate;}.cls-2{mix-blend-mode:multiply;}.cls-3{fill:#fff;opacity:0;}.cls-26,.cls-4{fill:#f9f9f9;}.cls-4{opacity:0.05;}.cls-27,.cls-5{fill:#f3f3f3;}.cls-5{opacity:0.1;}.cls-28,.cls-6{fill:#ededee;}.cls-6{opacity:0.14;}.cls-29,.cls-7{fill:#e7e7e8;}.cls-7{opacity:0.19;}.cls-30,.cls-8{fill:#e1e1e2;}.cls-8{opacity:0.24;}.cls-31,.cls-9{fill:#dbdbdc;}.cls-9{opacity:0.29;}.cls-10,.cls-32{fill:#d5d5d6;}.cls-10{opacity:0.33;}.cls-11,.cls-33{fill:#cfcfd1;}.cls-11{opacity:0.38;}.cls-12,.cls-34{fill:#c9c9cb;}.cls-12{opacity:0.43;}.cls-13,.cls-35{fill:#c3c3c5;}.cls-13{opacity:0.48;}.cls-14,.cls-36{fill:#bcbebf;}.cls-14{opacity:0.52;}.cls-15,.cls-37{fill:#b6b8b9;}.cls-15{opacity:0.57;}.cls-16,.cls-38{fill:#b0b2b3;}.cls-16{opacity:0.62;}.cls-17,.cls-39{fill:#aaacae;}.cls-17{opacity:0.67;}.cls-18,.cls-40{fill:#a4a6a8;}.cls-18{opacity:0.71;}.cls-19,.cls-41{fill:#9ea0a2;}.cls-19{opacity:0.76;}.cls-20,.cls-42{fill:#989a9c;}.cls-20{opacity:0.81;}.cls-21,.cls-43{fill:#929496;}.cls-21{opacity:0.86;}.cls-22,.cls-44{fill:#8c8e91;}.cls-22{opacity:0.9;}.cls-23,.cls-45{fill:#86888b;}.cls-23{opacity:0.95;}.Graphic-Style{fill:#808285;}.cls-24{fill:url(#linear-gradient);}.cls-25{fill:url(#linear-gradient-2);}.cls-26{opacity:0.05;}.cls-27{opacity:0.1;}.cls-28{opacity:0.14;}.cls-29{opacity:0.19;}.cls-30{opacity:0.24;}.cls-31{opacity:0.29;}.cls-32{opacity:0.33;}.cls-33{opacity:0.38;}.cls-34{opacity:0.43;}.cls-35{opacity:0.48;}.cls-36{opacity:0.52;}.cls-37{opacity:0.57;}.cls-38{opacity:0.62;}.cls-39{opacity:0.67;}.cls-40{opacity:0.71;}.cls-41{opacity:0.76;}.cls-42{opacity:0.81;}.cls-43{opacity:0.86;}.cls-44{opacity:0.9;}.cls-45{opacity:0.95;}.cls-46{fill:url(#linear-gradient-3);}.cls-47{fill:url(#linear-gradient-4);}</style><linearGradient id="linear-gradient" y1="230.96" x2="175.06" y2="230.96" gradientUnits="userSpaceOnUse"><stop offset="0" stop-color="#fff"/><stop offset="1" stop-color="#d1d3d4"/></linearGradient><linearGradient id="linear-gradient-2" x1="2.82" y1="230.96" x2="172.24" y2="230.96" gradientUnits="userSpaceOnUse"><stop offset="0" stop-color="#d1d3d4"/><stop offset="1" stop-color="#fff"/></linearGradient><linearGradient id="linear-gradient-3" x1="24" y1="358.02" x2="151.06" y2="358.02" gradientUnits="userSpaceOnUse"><stop offset="0" stop-color="#67bee1"/><stop offset="0.17" stop-color="#54b9de"/><stop offset="0.73" stop-color="#18aad3"/><stop offset="1" stop-color="#00a4cf"/></linearGradient><linearGradient id="linear-gradient-4" x1="26.82" y1="358.02" x2="148.24" y2="358.02" gradientUnits="userSpaceOnUse"><stop offset="0" stop-color="#00a4cf"/><stop offset="0.27" stop-color="#18aad3"/><stop offset="0.83" stop-color="#54b9de"/><stop offset="1" stop-color="#67bee1"/></linearGradient></defs><g class="cls-1"><g id="templates"><g id="_1" data-name="1"><g class="cls-2"><path class="cls-3" d="M108.65,483.61A87.53,87.53,0,0,1,57.83,324.82V71.38a50.83,50.83,0,1,1,101.65,0V324.82a87.53,87.53,0,0,1-50.82,158.79Z"/><path class="cls-4" d="M56.85,70.37a50.8,50.8,0,1,1,101.59,0V323.83l.24.17a87.5,87.5,0,1,1-101.83-.18Z"/><path class="cls-5" d="M55.87,69.36a50.77,50.77,0,0,1,101.54,0V322.83l.24.18a87.47,87.47,0,1,1-101.78-.18Z"/><path class="cls-6" d="M54.89,68.36a50.74,50.74,0,0,1,101.48,0V321.84l.24.17a87.45,87.45,0,1,1-101.72-.17Z"/><path class="cls-7" d="M53.91,67.35a50.72,50.72,0,0,1,101.43,0v253.5l.24.17a87.43,87.43,0,1,1-101.67-.17Z"/><path class="cls-8" d="M52.93,66.35a50.69,50.69,0,0,1,101.38,0V319.86l.24.17a87.4,87.4,0,1,1-101.62-.17Z"/><path class="cls-9" d="M52,65.34a50.67,50.67,0,0,1,101.33,0V318.87l.24.17A87.36,87.36,0,1,1,52,318.86Z"/><path class="cls-10" d="M51,64.34a50.64,50.64,0,1,1,101.27,0V317.87l.24.18A87.33,87.33,0,1,1,51,317.87Z"/><path class="cls-11" d="M50,63.33a50.61,50.61,0,0,1,101.22,0V316.88l.24.17A87.32,87.32,0,1,1,50,316.88Z"/><path class="cls-12" d="M49,62.33a50.58,50.58,0,1,1,101.16,0V315.89l.24.17A87.29,87.29,0,1,1,49,315.89Z"/><path class="cls-13" d="M48,61.32a50.56,50.56,0,0,1,101.11,0V314.9l.23.17A87.26,87.26,0,1,1,48,314.9Z"/><path class="cls-14" d="M47.06,60.31a50.53,50.53,0,0,1,101.05,0v253.6l.24.17a87.24,87.24,0,1,1-101.29-.17Z"/><path class="cls-15" d="M46.08,59.31a50.5,50.5,0,0,1,101,0v253.6l.24.18a87.2,87.2,0,1,1-101.24-.18Z"/><path class="cls-16" d="M45.1,58.3a50.48,50.48,0,0,1,101,0V311.92l.24.17a87.19,87.19,0,1,1-101.19-.17Z"/><path class="cls-17" d="M44.12,57.3a50.45,50.45,0,0,1,100.9,0V310.93l.23.17a87.15,87.15,0,1,1-101.13-.17Z"/><path class="cls-18" d="M43.14,56.29a50.42,50.42,0,1,1,100.84,0V309.94l.24.17a87.12,87.12,0,1,1-101.08-.17Z"/><path class="cls-19" d="M42.16,55.29a50.4,50.4,0,1,1,100.79,0V309l.24.17a87.1,87.1,0,1,1-101-.17Z"/><path class="cls-20" d="M41.19,54.28a50.37,50.37,0,1,1,100.73,0V308l.23.17a87.06,87.06,0,1,1-101-.18Z"/><path class="cls-21" d="M40.21,53.28a50.34,50.34,0,1,1,100.68,0V307l.23.17A87,87,0,1,1,40.21,307Z"/><path class="cls-22" d="M39.23,52.27a50.31,50.31,0,1,1,100.62,0V306l.24.17A87,87,0,1,1,39.23,306Z"/><path class="cls-23" d="M38.25,51.26a50.29,50.29,0,0,1,100.57,0V305l.24.17A87,87,0,1,1,38.25,305Z"/><path class="Graphic-Style" d="M87.53,461.93A87,87,0,0,1,37,304.16l.23-.17V50.26a50.26,50.26,0,0,1,100.52,0V304l.23.17A87,87,0,0,1,87.53,461.93Z"/></g><path class="cls-24" d="M87.53,462.49A87.53,87.53,0,0,1,36.71,303.7V50.26a50.82,50.82,0,1,1,101.64,0V303.7A87.53,87.53,0,0,1,87.53,462.49Z"/><path class="cls-25" d="M87.53,459.67a84.7,84.7,0,0,1-48-154.5V50.26a48,48,0,0,1,96,0V305.17a84.7,84.7,0,0,1-48,154.5Z"/><g class="cls-2"><path class="cls-3" d="M101.59,452.55a63.53,63.53,0,0,1-36-115.88l9.17-6.31V318.44a26.83,26.83,0,1,1,53.65,0v11.92l9.17,6.31a63.53,63.53,0,0,1-36,115.88Z"/><path class="cls-26" d="M100.92,451.86A63.51,63.51,0,0,1,64.94,336l9.18-6.32V317.77a26.8,26.8,0,0,1,53.6,0V329.7L136.9,336a63.51,63.51,0,0,1-36,115.84Z"/><path class="cls-27" d="M100.25,451.16a63.48,63.48,0,0,1-36-115.78l9.2-6.33V317.1a26.77,26.77,0,0,1,53.54,0v11.95l9.19,6.33a63.47,63.47,0,0,1-36,115.78Z"/><path class="cls-28" d="M99.58,450.46A63.45,63.45,0,0,1,63.63,334.73l9.21-6.34v-12a26.74,26.74,0,1,1,53.48,0v12l9.21,6.34A63.45,63.45,0,0,1,99.58,450.46Z"/><path class="cls-29" d="M98.91,449.77A63.43,63.43,0,0,1,63,334.08l9.21-6.34v-12a26.72,26.72,0,0,1,53.44,0v12l9.21,6.34A63.43,63.43,0,0,1,98.91,449.77Z"/><path class="cls-30" d="M98.24,449.07A63.4,63.4,0,0,1,62.32,333.44l9.23-6.36v-12a26.69,26.69,0,0,1,53.38,0v12l9.23,6.36A63.39,63.39,0,0,1,98.24,449.07Z"/><path class="cls-31" d="M97.57,448.37a63.36,63.36,0,0,1-35.9-115.58l9.24-6.36v-12a26.66,26.66,0,0,1,53.32,0v12l9.25,6.36A63.37,63.37,0,0,1,97.57,448.37Z"/><path class="cls-32" d="M96.9,447.68A63.35,63.35,0,0,1,61,332.14l9.26-6.37v-12a26.64,26.64,0,1,1,53.27,0v12l9.25,6.37A63.35,63.35,0,0,1,96.9,447.68Z"/><path class="cls-33" d="M96.23,447A63.32,63.32,0,0,1,60.36,331.49l9.26-6.37v-12a26.61,26.61,0,0,1,53.22,0v12l9.27,6.37A63.32,63.32,0,0,1,96.23,447Z"/><path class="cls-34" d="M95.56,446.29A63.29,63.29,0,0,1,59.71,330.85L69,324.46v-12a26.58,26.58,0,1,1,53.16,0v12l9.28,6.39A63.29,63.29,0,0,1,95.56,446.29Z"/><path class="cls-35" d="M94.89,445.59A63.26,63.26,0,0,1,59.05,330.2l9.29-6.39V311.74a26.56,26.56,0,0,1,53.11,0v12.07l9.29,6.39A63.27,63.27,0,0,1,94.89,445.59Z"/><path class="cls-36" d="M94.22,444.89A63.23,63.23,0,0,1,58.4,329.55l9.3-6.4V311.07a26.53,26.53,0,1,1,53.05,0v12.08l9.3,6.4A63.23,63.23,0,0,1,94.22,444.89Z"/><path class="cls-37" d="M93.55,444.2A63.22,63.22,0,0,1,57.74,328.9l9.31-6.4V310.4a26.51,26.51,0,0,1,53,0v12.1l9.31,6.4A63.22,63.22,0,0,1,93.55,444.2Z"/><path class="cls-38" d="M92.89,443.5a63.18,63.18,0,0,1-35.8-115.24l9.32-6.42V309.73a26.48,26.48,0,0,1,53,0v12.11l9.32,6.42A63.18,63.18,0,0,1,92.89,443.5Z"/><path class="cls-39" d="M92.22,442.8A63.15,63.15,0,0,1,56.43,327.61l9.34-6.42V309.06a26.45,26.45,0,0,1,52.89,0v12.13l9.34,6.42A63.15,63.15,0,0,1,92.22,442.8Z"/><path class="cls-40" d="M91.55,442.11A63.13,63.13,0,0,1,55.78,327l9.35-6.43V308.39a26.42,26.42,0,0,1,52.84,0v12.14l9.34,6.43A63.13,63.13,0,0,1,91.55,442.11Z"/><path class="cls-41" d="M90.88,441.41a63.1,63.1,0,0,1-35.75-115.1l9.35-6.43V307.72a26.4,26.4,0,0,1,52.79,0v12.16l9.36,6.43a63.1,63.1,0,0,1-35.75,115.1Z"/><path class="cls-42" d="M90.21,440.71a63.07,63.07,0,0,1-35.74-115l9.37-6.45V307.05a26.37,26.37,0,0,1,52.73,0v12.17l9.37,6.45a63.07,63.07,0,0,1-35.73,115Z"/><path class="cls-43" d="M89.54,440A63,63,0,0,1,53.82,325l9.38-6.46V306.38a26.34,26.34,0,0,1,52.68,0v12.18l9.38,6.46A63.05,63.05,0,0,1,89.54,440Z"/><path class="cls-44" d="M88.87,439.32A63,63,0,0,1,53.16,324.37l9.4-6.46v-12.2a26.31,26.31,0,1,1,52.62,0v12.2l9.39,6.46a63,63,0,0,1-35.7,115Z"/><path class="cls-45" d="M88.2,438.62A63,63,0,0,1,52.51,323.73l9.4-6.48v-12.2a26.29,26.29,0,1,1,52.57,0v12.2l9.41,6.48A63,63,0,0,1,88.2,438.62Z"/><path class="Graphic-Style" d="M87.53,437.93A63,63,0,0,1,51.85,323.08l9.42-6.48V304.38a26.26,26.26,0,0,1,52.52,0V316.6l9.41,6.48A63,63,0,0,1,87.53,437.93Z"/></g><path class="cls-46" d="M87.53,438.49a63.53,63.53,0,0,1-36-115.88l9.18-6.31V304.38a26.82,26.82,0,1,1,53.64,0V316.3l9.17,6.31a63.53,63.53,0,0,1-36,115.88Z"/><path class="cls-47" d="M87.53,435.67a60.71,60.71,0,0,1-34.4-110.73l10.4-7.15V304.38a24,24,0,0,1,48,0v13.41l10.39,7.15A60.7,60.7,0,0,1,87.53,435.67Z"/><path class="Graphic-Style" d="M133.88,279h-8.47a1.41,1.41,0,0,1,0-2.82h8.47a1.41,1.41,0,0,1,0,2.82Z"/><path class="Graphic-Style" d="M133.88,250.73h-8.47a1.41,1.41,0,1,1,0-2.82h8.47a1.41,1.41,0,0,1,0,2.82Z"/><path class="Graphic-Style" d="M133.88,222.49h-8.47a1.41,1.41,0,1,1,0-2.82h8.47a1.41,1.41,0,0,1,0,2.82Z"/><path class="Graphic-Style" d="M133.88,194.26h-8.47a1.42,1.42,0,0,1,0-2.83h8.47a1.42,1.42,0,0,1,0,2.83Z"/><path class="Graphic-Style" d="M133.88,166h-8.47a1.41,1.41,0,0,1,0-2.82h8.47a1.41,1.41,0,0,1,0,2.82Z"/><path class="Graphic-Style" d="M133.88,137.79h-8.47a1.42,1.42,0,0,1,0-2.83h8.47a1.42,1.42,0,0,1,0,2.83Z"/><path class="Graphic-Style" d="M133.88,109.55h-8.47a1.41,1.41,0,0,1,0-2.82h8.47a1.41,1.41,0,0,1,0,2.82Z"/><path class="Graphic-Style" d="M133.88,81.32h-8.47a1.42,1.42,0,0,1,0-2.83h8.47a1.42,1.42,0,0,1,0,2.83Z"/><path class="Graphic-Style" d="M133.88,53.08h-8.47a1.41,1.41,0,1,1,0-2.82h8.47a1.41,1.41,0,0,1,0,2.82Z"/></g></g></g></svg>