<svg xmlns="http://www.w3.org/2000/svg" xmlns:xlink="http://www.w3.org/1999/xlink" viewBox="0 0 196.18 482.97"><defs><style>.cls-1{isolation:isolate;}.cls-2{mix-blend-mode:multiply;}.cls-3{fill:#fff;opacity:0;}.cls-4{fill:#f9f9f9;opacity:0.05;}.cls-5{fill:#f3f3f3;opacity:0.1;}.cls-6{fill:#ededee;opacity:0.14;}.cls-7{fill:#e7e7e8;opacity:0.19;}.cls-8{fill:#e1e1e2;opacity:0.24;}.cls-9{fill:#dbdbdc;opacity:0.29;}.cls-10{fill:#d5d5d6;opacity:0.33;}.cls-11{fill:#cfcfd1;opacity:0.38;}.cls-12{fill:#c9c9cb;opacity:0.43;}.cls-13{fill:#c3c3c5;opacity:0.48;}.cls-14{fill:#bcbebf;opacity:0.52;}.cls-15{fill:#b6b8b9;opacity:0.57;}.cls-16{fill:#b0b2b3;opacity:0.62;}.cls-17{fill:#aaacae;opacity:0.67;}.cls-18{fill:#a4a6a8;opacity:0.71;}.cls-19{fill:#9ea0a2;opacity:0.76;}.cls-20{fill:#989a9c;opacity:0.81;}.cls-21{fill:#929496;opacity:0.86;}.cls-22{fill:#8c8e91;opacity:0.9;}.cls-23{fill:#86888b;opacity:0.95;}.Graphic-Style{fill:#808285;}.cls-24{fill:url(#linear-gradient);}.cls-25{fill:url(#linear-gradient-2);}.cls-26{fill:url(#linear-gradient-3);}.cls-27{fill:url(#linear-gradient-4);}</style><linearGradient id="linear-gradient" x1="1.26" y1="230.93" x2="176.32" y2="230.93" gradientUnits="userSpaceOnUse"><stop offset="0" stop-color="#fff"/><stop offset="1" stop-color="#d1d3d4"/></linearGradient><linearGradient id="linear-gradient-2" x1="4.08" y1="230.93" x2="173.49" y2="230.93" gradientUnits="userSpaceOnUse"><stop offset="0" stop-color="#d1d3d4"/><stop offset="1" stop-color="#fff"/></linearGradient><linearGradient id="linear-gradient-3" x1="25.26" y1="343.87" x2="152.32" y2="343.87" gradientUnits="userSpaceOnUse"><stop offset="0" stop-color="#00aeee"/><stop offset="1" stop-color="#0095da"/></linearGradient><linearGradient id="linear-gradient-4" x1="28.08" y1="343.87" x2="149.49" y2="343.87" gradientUnits="userSpaceOnUse"><stop offset="0" stop-color="#0095da"/><stop offset="1" stop-color="#00aeee"/></linearGradient></defs><g class="cls-1"><g id="templates"><g id="_2" data-name="2"><g class="cls-2"><path class="cls-3" d="M109.91,483.58a87.54,87.54,0,0,1-50.83-158.8V71.34a50.83,50.83,0,0,1,101.65,0V324.78a87.53,87.53,0,0,1-50.82,158.8Z"/><path class="cls-4" d="M58.1,70.33a50.8,50.8,0,0,1,101.6,0V323.79l.24.17a87.51,87.51,0,1,1-101.83-.17Z"/><path class="cls-5" d="M57.13,69.33a50.77,50.77,0,1,1,101.53,0V322.8l.25.17a87.48,87.48,0,1,1-101.78-.17Z"/><path class="cls-6" d="M56.15,68.32a50.74,50.74,0,1,1,101.48,0V321.81l.24.17a87.44,87.44,0,1,1-101.72-.18Z"/><path class="cls-7" d="M55.17,67.32a50.72,50.72,0,1,1,101.43,0V320.81l.24.18a87.42,87.42,0,1,1-101.67-.18Z"/><path class="cls-8" d="M54.19,66.31a50.69,50.69,0,0,1,101.38,0V319.82l.24.17a87.4,87.4,0,1,1-101.62-.17Z"/><path class="cls-9" d="M53.21,65.31a50.66,50.66,0,1,1,101.32,0V318.83l.24.17a87.37,87.37,0,1,1-101.56-.17Z"/><path class="cls-10" d="M52.23,64.3a50.64,50.64,0,0,1,101.27,0V317.84l.24.17a87.34,87.34,0,1,1-101.51-.17Z"/><path class="cls-11" d="M51.25,63.3a50.61,50.61,0,0,1,101.22,0V316.85l.24.17a87.3,87.3,0,1,1-101.46-.18Z"/><path class="cls-12" d="M50.27,62.29a50.59,50.59,0,0,1,101.17,0V315.85l.24.18a87.28,87.28,0,1,1-101.4-.18Z"/><path class="cls-13" d="M49.3,61.28a50.55,50.55,0,0,1,101.1,0V314.86l.24.17a87.26,87.26,0,1,1-101.34-.17Z"/><path class="cls-14" d="M48.32,60.28a50.53,50.53,0,1,1,101.05,0V313.87l.24.17a87.24,87.24,0,1,1-101.29-.17Z"/><path class="cls-15" d="M47.34,59.27a50.5,50.5,0,0,1,101,0V312.88l.24.17a87.21,87.21,0,1,1-101.24-.17Z"/><path class="cls-16" d="M46.36,58.27a50.48,50.48,0,1,1,101,0V311.89l.23.17a87.18,87.18,0,1,1-101.18-.17Z"/><path class="cls-17" d="M45.38,57.26a50.45,50.45,0,1,1,100.89,0V310.9a2.07,2.07,0,0,1,.24.17,87.14,87.14,0,1,1-101.13-.18Z"/><path class="cls-18" d="M44.4,56.26a50.42,50.42,0,0,1,100.84,0V309.9l.24.17A87.12,87.12,0,1,1,44.4,309.9Z"/><path class="cls-19" d="M43.42,55.25a50.4,50.4,0,0,1,100.79,0V308.91l.24.17a87.1,87.1,0,1,1-101-.17Z"/><path class="cls-20" d="M42.45,54.24a50.37,50.37,0,0,1,100.73,0V307.92l.23.17a87.07,87.07,0,1,1-101-.17Z"/><path class="cls-21" d="M41.47,53.24a50.34,50.34,0,1,1,100.67,0V306.93l.24.17a87,87,0,1,1-100.91-.17Z"/><path class="cls-22" d="M40.49,52.23a50.31,50.31,0,0,1,100.62,0V305.94l.24.17a87,87,0,1,1-100.86-.18Z"/><path class="cls-23" d="M39.51,51.23a50.29,50.29,0,1,1,100.57,0V304.94l.24.17a87,87,0,1,1-100.81-.17Z"/><path class="Graphic-Style" d="M88.79,461.89a87,87,0,0,1-50.5-157.77l.24-.17V50.22a50.26,50.26,0,0,1,100.52,0V304l.23.17A87,87,0,0,1,88.79,461.89Z"/></g><path class="cls-24" d="M88.79,462.46A87.53,87.53,0,0,1,38,303.66V50.22a50.82,50.82,0,0,1,101.64,0V303.66a87.53,87.53,0,0,1-50.82,158.8Z"/><path class="cls-25" d="M88.79,459.63a84.7,84.7,0,0,1-48-154.5V50.22a48,48,0,1,1,96,0V305.13a84.71,84.71,0,0,1-48,154.5Z"/><g class="cls-2"><path class="cls-3" d="M102.85,452.52a63.53,63.53,0,0,1-36-115.88L76,330.32V290.16a26.83,26.83,0,0,1,53.65,0v40.16l9.17,6.32a63.53,63.53,0,0,1-36,115.88Z"/><path class="cls-4" d="M102.18,451.82A63.5,63.5,0,0,1,66.2,336l9.18-6.32V289.49a26.8,26.8,0,0,1,53.59,0v40.18l9.19,6.32a63.5,63.5,0,0,1-36,115.83Z"/><path class="cls-5" d="M101.51,451.12a63.48,63.48,0,0,1-36-115.78l9.2-6.33V288.82a26.77,26.77,0,0,1,53.54,0V329l9.19,6.33a63.48,63.48,0,0,1-36,115.78Z"/><path class="cls-6" d="M100.84,450.43A63.45,63.45,0,0,1,64.89,334.69l9.21-6.33v-40.2a26.74,26.74,0,1,1,53.48,0v40.2l9.21,6.33a63.45,63.45,0,0,1-35.95,115.74Z"/><path class="cls-7" d="M100.17,449.73A63.42,63.42,0,0,1,64.24,334.05l9.21-6.35V287.49a26.72,26.72,0,0,1,53.44,0V327.7l9.21,6.35a63.42,63.42,0,0,1-35.93,115.68Z"/><path class="cls-8" d="M99.5,449A63.4,63.4,0,0,1,63.58,333.4l9.23-6.35V286.82a26.69,26.69,0,0,1,53.38,0v40.23l9.23,6.35A63.39,63.39,0,0,1,99.5,449Z"/><path class="cls-9" d="M98.83,448.34a63.37,63.37,0,0,1-35.9-115.59l9.24-6.36V286.15a26.66,26.66,0,1,1,53.32,0v40.24l9.24,6.36a63.37,63.37,0,0,1-35.9,115.59Z"/><path class="cls-10" d="M98.16,447.64A63.35,63.35,0,0,1,62.27,332.1l9.26-6.36V285.48a26.64,26.64,0,1,1,53.27,0v40.26l9.25,6.36A63.35,63.35,0,0,1,98.16,447.64Z"/><path class="cls-11" d="M97.49,447A63.32,63.32,0,0,1,61.62,331.46l9.26-6.38V284.81a26.61,26.61,0,0,1,53.22,0v40.27l9.27,6.38A63.32,63.32,0,0,1,97.49,447Z"/><path class="cls-12" d="M96.82,446.25A63.29,63.29,0,0,1,61,330.81l9.28-6.38V284.14a26.58,26.58,0,0,1,53.16,0v40.29l9.28,6.38A63.29,63.29,0,0,1,96.82,446.25Z"/><path class="cls-13" d="M96.15,445.55A63.26,63.26,0,0,1,60.31,330.16l9.29-6.39v-40.3a26.56,26.56,0,1,1,53.11,0v40.3l9.29,6.39A63.27,63.27,0,0,1,96.15,445.55Z"/><path class="cls-14" d="M95.48,444.86A63.23,63.23,0,0,1,59.66,329.52l9.3-6.4V282.8a26.53,26.53,0,1,1,53.05,0v40.32l9.3,6.4A63.23,63.23,0,0,1,95.48,444.86Z"/><path class="cls-15" d="M94.81,444.16A63.21,63.21,0,0,1,59,328.87l9.31-6.41V282.13a26.5,26.5,0,0,1,53,0v40.33l9.32,6.41A63.21,63.21,0,0,1,94.81,444.16Z"/><path class="cls-16" d="M94.14,443.46A63.18,63.18,0,0,1,58.35,328.22l9.32-6.42V281.46a26.48,26.48,0,0,1,53,0V321.8l9.32,6.42a63.18,63.18,0,0,1-35.8,115.24Z"/><path class="cls-17" d="M93.47,442.77a63.16,63.16,0,0,1-35.78-115.2L67,321.15V280.79a26.45,26.45,0,1,1,52.89,0v40.36l9.34,6.42a63.16,63.16,0,0,1-35.79,115.2Z"/><path class="cls-18" d="M92.81,442.07A63.12,63.12,0,0,1,57,326.93l9.35-6.44V280.12a26.42,26.42,0,0,1,52.84,0v40.37l9.34,6.44A63.12,63.12,0,0,1,92.81,442.07Z"/><path class="cls-19" d="M92.14,441.37A63.1,63.1,0,0,1,56.38,326.28l9.36-6.44V279.45a26.4,26.4,0,0,1,52.79,0v40.39l9.36,6.44A63.1,63.1,0,0,1,92.14,441.37Z"/><path class="cls-20" d="M91.47,440.68a63.07,63.07,0,0,1-35.74-115l9.37-6.45v-40.4a26.37,26.37,0,0,1,52.73,0v40.4l9.37,6.45A63.07,63.07,0,0,1,91.47,440.68Z"/><path class="cls-21" d="M90.8,440A63,63,0,0,1,55.08,325l9.38-6.45V278.11a26.34,26.34,0,0,1,52.68,0v40.42l9.38,6.45A63.05,63.05,0,0,1,90.8,440Z"/><path class="cls-22" d="M90.13,439.29a63,63,0,0,1-35.71-115l9.4-6.47V277.44a26.31,26.31,0,1,1,52.62,0v40.43l9.39,6.47a63,63,0,0,1-35.7,115Z"/><path class="cls-23" d="M89.46,438.59a63,63,0,0,1-35.69-114.9l9.4-6.47V276.77a26.29,26.29,0,0,1,52.57,0v40.45l9.41,6.47a63,63,0,0,1-35.69,114.9Z"/><path class="Graphic-Style" d="M88.79,437.89A63,63,0,0,1,53.11,323l9.42-6.48V276.1a26.26,26.26,0,0,1,52.52,0v40.46l9.41,6.48A63,63,0,0,1,88.79,437.89Z"/></g><path class="cls-26" d="M88.79,438.46a63.53,63.53,0,0,1-36-115.88L62,316.26V276.1a26.82,26.82,0,1,1,53.64,0v40.16l9.17,6.32a63.53,63.53,0,0,1-36,115.88Z"/><path class="cls-27" d="M88.79,435.63A60.71,60.71,0,0,1,54.39,324.9l10.4-7.15V276.1a24,24,0,0,1,48,0v41.65l10.39,7.15A60.71,60.71,0,0,1,88.79,435.63Z"/><path class="Graphic-Style" d="M135.14,278.93h-8.47a1.42,1.42,0,0,1,0-2.83h8.47a1.42,1.42,0,0,1,0,2.83Z"/><path class="Graphic-Style" d="M135.14,250.69h-8.47a1.41,1.41,0,0,1,0-2.82h8.47a1.41,1.41,0,1,1,0,2.82Z"/><path class="Graphic-Style" d="M135.14,222.46h-8.47a1.42,1.42,0,0,1,0-2.83h8.47a1.42,1.42,0,0,1,0,2.83Z"/><path class="Graphic-Style" d="M135.14,194.22h-8.47a1.41,1.41,0,0,1,0-2.82h8.47a1.41,1.41,0,1,1,0,2.82Z"/><path class="Graphic-Style" d="M135.14,166h-8.47a1.42,1.42,0,0,1,0-2.83h8.47a1.42,1.42,0,0,1,0,2.83Z"/><path class="Graphic-Style" d="M135.14,137.75h-8.47a1.41,1.41,0,0,1,0-2.82h8.47a1.41,1.41,0,1,1,0,2.82Z"/><path class="Graphic-Style" d="M135.14,109.52h-8.47a1.42,1.42,0,0,1,0-2.83h8.47a1.42,1.42,0,0,1,0,2.83Z"/><path class="Graphic-Style" d="M135.14,81.28h-8.47a1.41,1.41,0,1,1,0-2.82h8.47a1.41,1.41,0,1,1,0,2.82Z"/><path class="Graphic-Style" d="M135.14,53.05h-8.47a1.42,1.42,0,0,1,0-2.83h8.47a1.42,1.42,0,0,1,0,2.83Z"/></g></g></g></svg>