<svg xmlns="http://www.w3.org/2000/svg" xmlns:xlink="http://www.w3.org/1999/xlink" viewBox="0 0 196.18 482.97"><defs><style>.cls-1{isolation:isolate;}.cls-2{mix-blend-mode:multiply;}.cls-3{fill:#fff;opacity:0;}.cls-4{fill:#f9f9f9;opacity:0.05;}.cls-5{fill:#f3f3f3;opacity:0.1;}.cls-6{fill:#ededee;opacity:0.14;}.cls-7{fill:#e7e7e8;opacity:0.19;}.cls-8{fill:#e1e1e2;opacity:0.24;}.cls-9{fill:#dbdbdc;opacity:0.29;}.cls-10{fill:#d5d5d6;opacity:0.33;}.cls-11{fill:#cfcfd1;opacity:0.38;}.cls-12{fill:#c9c9cb;opacity:0.43;}.cls-13{fill:#c3c3c5;opacity:0.48;}.cls-14{fill:#bcbebf;opacity:0.52;}.cls-15{fill:#b6b8b9;opacity:0.57;}.cls-16{fill:#b0b2b3;opacity:0.62;}.cls-17{fill:#aaacae;opacity:0.67;}.cls-18{fill:#a4a6a8;opacity:0.71;}.cls-19{fill:#9ea0a2;opacity:0.76;}.cls-20{fill:#989a9c;opacity:0.81;}.cls-21{fill:#929496;opacity:0.86;}.cls-22{fill:#8c8e91;opacity:0.9;}.cls-23{fill:#86888b;opacity:0.95;}.Graphic-Style{fill:#808285;}.cls-24{fill:url(#linear-gradient);}.cls-25{fill:url(#linear-gradient-2);}.cls-26{fill:url(#linear-gradient-3);}.cls-27{fill:url(#linear-gradient-4);}</style><linearGradient id="linear-gradient" x1="0.93" y1="230.96" x2="175.99" y2="230.96" gradientUnits="userSpaceOnUse"><stop offset="0" stop-color="#fff"/><stop offset="1" stop-color="#d1d3d4"/></linearGradient><linearGradient id="linear-gradient-2" x1="3.76" y1="230.96" x2="173.17" y2="230.96" gradientUnits="userSpaceOnUse"><stop offset="0" stop-color="#d1d3d4"/><stop offset="1" stop-color="#fff"/></linearGradient><linearGradient id="linear-gradient-3" x1="24.93" y1="329.79" x2="151.99" y2="329.79" gradientUnits="userSpaceOnUse"><stop offset="0" stop-color="#8dc63f"/><stop offset="1" stop-color="#76b83f"/></linearGradient><linearGradient id="linear-gradient-4" x1="27.76" y1="329.79" x2="149.17" y2="329.79" gradientUnits="userSpaceOnUse"><stop offset="0" stop-color="#76b83f"/><stop offset="1" stop-color="#8dc63f"/></linearGradient></defs><g class="cls-1"><g id="templates"><g id="_3" data-name="3"><g class="cls-2"><path class="cls-3" d="M109.58,483.61A87.53,87.53,0,0,1,58.76,324.82V71.38a50.82,50.82,0,1,1,101.64,0V324.82a87.53,87.53,0,0,1-50.82,158.79Z"/><path class="cls-4" d="M57.78,70.37a50.8,50.8,0,1,1,101.59,0V323.83a2.07,2.07,0,0,1,.24.17,87.5,87.5,0,1,1-101.83-.18Z"/><path class="cls-5" d="M56.8,69.36a50.77,50.77,0,0,1,101.54,0V322.83l.24.18a87.47,87.47,0,1,1-101.78-.18Z"/><path class="cls-6" d="M55.82,68.36a50.75,50.75,0,0,1,101.49,0V321.84l.24.17a87.45,87.45,0,1,1-101.73-.17Z"/><path class="cls-7" d="M54.84,67.35a50.72,50.72,0,0,1,101.43,0v253.5l.24.17a87.42,87.42,0,1,1-101.67-.17Z"/><path class="cls-8" d="M53.86,66.35a50.69,50.69,0,0,1,101.38,0V319.86l.24.17a87.4,87.4,0,1,1-101.61-.17Z"/><path class="cls-9" d="M52.89,65.34a50.66,50.66,0,0,1,101.32,0V318.87l.24.17a87.36,87.36,0,1,1-101.56-.18Z"/><path class="cls-10" d="M51.91,64.34a50.64,50.64,0,1,1,101.27,0V317.87l.24.18a87.34,87.34,0,1,1-101.51-.18Z"/><path class="cls-11" d="M50.93,63.33a50.61,50.61,0,1,1,101.21,0V316.88l.24.17a87.32,87.32,0,1,1-101.45-.17Z"/><path class="cls-12" d="M50,62.33a50.58,50.58,0,1,1,101.16,0V315.89l.24.17A87.29,87.29,0,1,1,50,315.89Z"/><path class="cls-13" d="M49,61.32a50.56,50.56,0,0,1,101.11,0V314.9l.24.17A87.27,87.27,0,1,1,49,314.9Z"/><path class="cls-14" d="M48,60.31a50.53,50.53,0,0,1,101.06,0v253.6l.24.17A87.23,87.23,0,1,1,48,313.91Z"/><path class="cls-15" d="M47,59.31a50.5,50.5,0,1,1,101,0v253.6l.24.18A87.19,87.19,0,1,1,47,312.91Z"/><path class="cls-16" d="M46,58.3A50.48,50.48,0,0,1,147,58.3V311.92l.24.17A87.18,87.18,0,1,1,46,311.92Z"/><path class="cls-17" d="M45.06,57.3A50.45,50.45,0,1,1,146,57.3V310.93l.24.17a87.16,87.16,0,1,1-101.13-.17Z"/><path class="cls-18" d="M44.08,56.29a50.42,50.42,0,1,1,100.84,0V309.94l.23.17a87.13,87.13,0,1,1-101.07-.17Z"/><path class="cls-19" d="M43.1,55.29a50.39,50.39,0,1,1,100.78,0V309l.24.17a87.1,87.1,0,1,1-101-.17Z"/><path class="cls-20" d="M42.12,54.28a50.37,50.37,0,1,1,100.73,0V308l.24.17a87.07,87.07,0,1,1-101-.18Z"/><path class="cls-21" d="M41.14,53.28a50.34,50.34,0,1,1,100.68,0V307l.24.17A87,87,0,1,1,41.14,307Z"/><path class="cls-22" d="M40.16,52.27a50.32,50.32,0,0,1,100.63,0V306l.23.17A87,87,0,1,1,40.16,306Z"/><path class="cls-23" d="M39.18,51.26a50.29,50.29,0,0,1,100.57,0V305l.24.17A87,87,0,1,1,39.18,305Z"/><path class="Graphic-Style" d="M88.46,461.93A87,87,0,0,1,38,304.16l.24-.17V50.26a50.26,50.26,0,0,1,100.52,0V304l.24.17a87,87,0,0,1-50.5,157.77Z"/></g><path class="cls-24" d="M88.46,462.49A87.53,87.53,0,0,1,37.64,303.7V50.26a50.83,50.83,0,1,1,101.65,0V303.7A87.53,87.53,0,0,1,88.46,462.49Z"/><path class="cls-25" d="M88.46,459.67a84.71,84.71,0,0,1-48-154.5V50.26a48,48,0,0,1,96,0V305.17a84.7,84.7,0,0,1-48,154.5Z"/><g class="cls-2"><path class="cls-3" d="M102.52,452.55a63.53,63.53,0,0,1-36-115.88l9.17-6.31V262a26.83,26.83,0,0,1,53.65,0v68.4l9.17,6.31a63.53,63.53,0,0,1-36,115.88Z"/><path class="cls-4" d="M101.85,451.86A63.51,63.51,0,0,1,65.87,336l9.19-6.32V261.29a26.8,26.8,0,0,1,53.59,0V329.7l9.18,6.32a63.51,63.51,0,0,1-36,115.84Z"/><path class="cls-5" d="M101.18,451.16a63.48,63.48,0,0,1-36-115.78l9.19-6.33V260.63a26.77,26.77,0,0,1,53.54,0v68.42l9.2,6.33a63.48,63.48,0,0,1-36,115.78Z"/><path class="cls-6" d="M100.51,450.46A63.45,63.45,0,0,1,64.56,334.73l9.21-6.34V260a26.75,26.75,0,1,1,53.49,0v68.43l9.2,6.34a63.45,63.45,0,0,1-35.95,115.73Z"/><path class="cls-7" d="M99.84,449.77A63.43,63.43,0,0,1,63.91,334.08l9.22-6.34V259.29a26.72,26.72,0,1,1,53.43,0v68.45l9.22,6.34A63.43,63.43,0,0,1,99.84,449.77Z"/><path class="cls-8" d="M99.17,449.07A63.39,63.39,0,0,1,63.26,333.44l9.23-6.36V258.62a26.69,26.69,0,1,1,53.37,0v68.46l9.23,6.36A63.39,63.39,0,0,1,99.17,449.07Z"/><path class="cls-9" d="M98.51,448.37A63.37,63.37,0,0,1,62.6,332.79l9.24-6.36V258a26.67,26.67,0,0,1,53.33,0v68.48l9.24,6.36a63.37,63.37,0,0,1-35.9,115.58Z"/><path class="cls-10" d="M97.84,447.68A63.34,63.34,0,0,1,62,332.14l9.25-6.37V257.28a26.64,26.64,0,1,1,53.27,0v68.49l9.25,6.37A63.34,63.34,0,0,1,97.84,447.68Z"/><path class="cls-11" d="M97.17,447A63.32,63.32,0,0,1,61.29,331.49l9.27-6.37V256.61a26.61,26.61,0,1,1,53.21,0v68.51l9.27,6.37A63.32,63.32,0,0,1,97.17,447Z"/><path class="cls-12" d="M96.5,446.29A63.29,63.29,0,0,1,60.64,330.85l9.28-6.39V255.94a26.58,26.58,0,0,1,53.16,0v68.52l9.27,6.39A63.29,63.29,0,0,1,96.5,446.29Z"/><path class="cls-13" d="M95.83,445.59A63.27,63.27,0,0,1,60,330.2l9.29-6.39V255.27a26.56,26.56,0,0,1,53.11,0v68.54l9.29,6.39A63.26,63.26,0,0,1,95.83,445.59Z"/><path class="cls-14" d="M95.16,444.89A63.23,63.23,0,0,1,59.33,329.55l9.3-6.4V254.6a26.53,26.53,0,0,1,53.06,0v68.55l9.3,6.4A63.24,63.24,0,0,1,95.16,444.89Z"/><path class="cls-15" d="M94.49,444.2A63.21,63.21,0,0,1,58.68,328.9L68,322.5V253.93a26.5,26.5,0,0,1,53,0V322.5l9.31,6.4A63.22,63.22,0,0,1,94.49,444.2Z"/><path class="cls-16" d="M93.82,443.5A63.18,63.18,0,0,1,58,328.26l9.33-6.42V253.26a26.47,26.47,0,0,1,52.94,0v68.58l9.33,6.42A63.18,63.18,0,0,1,93.82,443.5Z"/><path class="cls-17" d="M93.15,442.8A63.15,63.15,0,0,1,57.37,327.61l9.33-6.42v-68.6a26.45,26.45,0,1,1,52.9,0v68.6l9.33,6.42A63.15,63.15,0,0,1,93.15,442.8Z"/><path class="cls-18" d="M92.48,442.11A63.13,63.13,0,0,1,56.71,327l9.35-6.43V251.92a26.42,26.42,0,0,1,52.84,0v68.61l9.35,6.43A63.13,63.13,0,0,1,92.48,442.11Z"/><path class="cls-19" d="M91.81,441.41a63.1,63.1,0,0,1-35.75-115.1l9.36-6.43V251.25a26.39,26.39,0,0,1,52.78,0v68.63l9.36,6.43a63.1,63.1,0,0,1-35.75,115.1Z"/><path class="cls-20" d="M91.14,440.71a63.07,63.07,0,0,1-35.74-115l9.38-6.45V250.58a26.37,26.37,0,0,1,52.73,0v68.64l9.37,6.45a63.07,63.07,0,0,1-35.74,115Z"/><path class="cls-21" d="M90.47,440A63.05,63.05,0,0,1,54.75,325l9.38-6.46V249.91a26.34,26.34,0,0,1,52.68,0v68.65l9.38,6.46A63,63,0,0,1,90.47,440Z"/><path class="cls-22" d="M89.8,439.32A63,63,0,0,1,54.1,324.37l9.39-6.46V249.24a26.31,26.31,0,0,1,52.62,0v68.67l9.4,6.46a63,63,0,0,1-35.71,115Z"/><path class="cls-23" d="M89.13,438.62A63,63,0,0,1,53.44,323.73l9.41-6.48V248.57a26.29,26.29,0,0,1,52.57,0v68.68l9.4,6.48A63,63,0,0,1,89.13,438.62Z"/><path class="Graphic-Style" d="M88.46,437.93A63,63,0,0,1,52.79,323.08l9.41-6.48V247.91a26.26,26.26,0,0,1,52.52,0V316.6l9.42,6.48A63,63,0,0,1,88.46,437.93Z"/></g><path class="cls-26" d="M88.46,438.49a63.53,63.53,0,0,1-36-115.88l9.17-6.31V247.91a26.83,26.83,0,1,1,53.65,0V316.3l9.17,6.31a63.53,63.53,0,0,1-36,115.88Z"/><path class="cls-27" d="M88.46,435.67A60.71,60.71,0,0,1,54.07,324.94l10.39-7.15V247.91a24,24,0,0,1,48,0v69.88l10.4,7.15a60.71,60.71,0,0,1-34.4,110.73Z"/><path class="Graphic-Style" d="M134.82,279h-8.47a1.41,1.41,0,1,1,0-2.82h8.47a1.41,1.41,0,0,1,0,2.82Z"/><path class="Graphic-Style" d="M134.82,250.73h-8.47a1.41,1.41,0,1,1,0-2.82h8.47a1.41,1.41,0,0,1,0,2.82Z"/><path class="Graphic-Style" d="M134.82,222.49h-8.47a1.41,1.41,0,1,1,0-2.82h8.47a1.41,1.41,0,0,1,0,2.82Z"/><path class="Graphic-Style" d="M134.82,194.26h-8.47a1.42,1.42,0,1,1,0-2.83h8.47a1.42,1.42,0,0,1,0,2.83Z"/><path class="Graphic-Style" d="M134.82,166h-8.47a1.41,1.41,0,1,1,0-2.82h8.47a1.41,1.41,0,0,1,0,2.82Z"/><path class="Graphic-Style" d="M134.82,137.79h-8.47a1.42,1.42,0,1,1,0-2.83h8.47a1.42,1.42,0,0,1,0,2.83Z"/><path class="Graphic-Style" d="M134.82,109.55h-8.47a1.41,1.41,0,1,1,0-2.82h8.47a1.41,1.41,0,0,1,0,2.82Z"/><path class="Graphic-Style" d="M134.82,81.32h-8.47a1.42,1.42,0,1,1,0-2.83h8.47a1.42,1.42,0,0,1,0,2.83Z"/><path class="Graphic-Style" d="M134.82,53.08h-8.47a1.41,1.41,0,1,1,0-2.82h8.47a1.41,1.41,0,0,1,0,2.82Z"/></g></g></g></svg>