<svg xmlns="http://www.w3.org/2000/svg" xmlns:xlink="http://www.w3.org/1999/xlink" viewBox="0 0 196.18 482.97"><defs><style>.cls-1{isolation:isolate;}.cls-2{mix-blend-mode:multiply;}.cls-3{fill:#fff;opacity:0;}.cls-4{fill:#f9f9f9;opacity:0.05;}.cls-5{fill:#f3f3f3;opacity:0.1;}.cls-6{fill:#ededee;opacity:0.14;}.cls-7{fill:#e7e7e8;opacity:0.19;}.cls-8{fill:#e1e1e2;opacity:0.24;}.cls-9{fill:#dbdbdc;opacity:0.29;}.cls-10{fill:#d5d5d6;opacity:0.33;}.cls-11{fill:#cfcfd1;opacity:0.38;}.cls-12{fill:#c9c9cb;opacity:0.43;}.cls-13{fill:#c3c3c5;opacity:0.48;}.cls-14{fill:#bcbebf;opacity:0.52;}.cls-15{fill:#b6b8b9;opacity:0.57;}.cls-16{fill:#b0b2b3;opacity:0.62;}.cls-17{fill:#aaacae;opacity:0.67;}.cls-18{fill:#a4a6a8;opacity:0.71;}.cls-19{fill:#9ea0a2;opacity:0.76;}.cls-20{fill:#989a9c;opacity:0.81;}.cls-21{fill:#929496;opacity:0.86;}.cls-22{fill:#8c8e91;opacity:0.9;}.cls-23{fill:#86888b;opacity:0.95;}.Graphic-Style{fill:#808285;}.cls-24{fill:url(#linear-gradient);}.cls-25{fill:url(#linear-gradient-2);}.cls-26{fill:url(#linear-gradient-3);}.cls-27{fill:url(#linear-gradient-4);}</style><linearGradient id="linear-gradient" x1="1.21" y1="231.53" x2="176.27" y2="231.53" gradientUnits="userSpaceOnUse"><stop offset="0" stop-color="#fff"/><stop offset="1" stop-color="#d1d3d4"/></linearGradient><linearGradient id="linear-gradient-2" x1="4.03" y1="231.53" x2="173.44" y2="231.53" gradientUnits="userSpaceOnUse"><stop offset="0" stop-color="#d1d3d4"/><stop offset="1" stop-color="#fff"/></linearGradient><linearGradient id="linear-gradient-3" x1="25.21" y1="316.24" x2="152.27" y2="316.24" gradientUnits="userSpaceOnUse"><stop offset="0" stop-color="#33b49d"/><stop offset="1" stop-color="#00a185"/></linearGradient><linearGradient id="linear-gradient-4" x1="28.03" y1="316.24" x2="149.44" y2="316.24" gradientUnits="userSpaceOnUse"><stop offset="0" stop-color="#00a185"/><stop offset="1" stop-color="#33b49d"/></linearGradient></defs><g class="cls-1"><g id="templates"><g id="_4" data-name="4"><g class="cls-2"><path class="cls-3" d="M109.86,484.18A87.54,87.54,0,0,1,59,325.38V71.94a50.83,50.83,0,0,1,101.65,0V325.38a87.53,87.53,0,0,1-50.82,158.8Z"/><path class="cls-4" d="M58.05,70.94a50.8,50.8,0,0,1,101.6,0V324.39a2.07,2.07,0,0,0,.24.17,87.51,87.51,0,1,1-101.83-.17Z"/><path class="cls-5" d="M57.08,69.93a50.77,50.77,0,1,1,101.53,0V323.4l.25.17a87.48,87.48,0,1,1-101.78-.17Z"/><path class="cls-6" d="M56.1,68.92a50.74,50.74,0,0,1,101.48,0V322.41l.24.17a87.45,87.45,0,1,1-101.72-.17Z"/><path class="cls-7" d="M55.12,67.92a50.72,50.72,0,1,1,101.43,0V321.41l.24.18a87.42,87.42,0,1,1-101.67-.18Z"/><path class="cls-8" d="M54.14,66.91a50.69,50.69,0,0,1,101.38,0V320.42l.24.18a87.39,87.39,0,1,1-101.62-.18Z"/><path class="cls-9" d="M53.16,65.91a50.66,50.66,0,1,1,101.32,0V319.43l.24.17a87.37,87.37,0,1,1-101.56-.17Z"/><path class="cls-10" d="M52.18,64.9a50.64,50.64,0,0,1,101.27,0V318.44l.24.17a87.34,87.34,0,1,1-101.51-.17Z"/><path class="cls-11" d="M51.2,63.9a50.61,50.61,0,1,1,101.22,0V317.45l.24.17a87.31,87.31,0,1,1-101.46-.17Z"/><path class="cls-12" d="M50.22,62.89a50.59,50.59,0,0,1,101.17,0V316.46l.24.17a87.28,87.28,0,1,1-101.4-.18Z"/><path class="cls-13" d="M49.25,61.89a50.55,50.55,0,1,1,101.1,0V315.46l.24.18a87.25,87.25,0,1,1-101.34-.18Z"/><path class="cls-14" d="M48.27,60.88a50.53,50.53,0,1,1,101,0V314.47l.24.17a87.24,87.24,0,1,1-101.29-.17Z"/><path class="cls-15" d="M47.29,59.87a50.5,50.5,0,1,1,101,0V313.48l.24.17a87.21,87.21,0,1,1-101.24-.17Z"/><path class="cls-16" d="M46.31,58.87a50.48,50.48,0,1,1,100.95,0V312.49l.23.17a87.18,87.18,0,1,1-101.18-.17Z"/><path class="cls-17" d="M45.33,57.86a50.45,50.45,0,0,1,100.89,0V311.5l.24.17a87.15,87.15,0,1,1-101.13-.17Z"/><path class="cls-18" d="M44.35,56.86a50.42,50.42,0,0,1,100.84,0V310.5l.24.18a87.11,87.11,0,1,1-101.08-.18Z"/><path class="cls-19" d="M43.37,55.85a50.4,50.4,0,0,1,100.79,0V309.51l.24.17a87.1,87.1,0,1,1-101-.17Z"/><path class="cls-20" d="M42.39,54.85a50.37,50.37,0,1,1,100.74,0V308.52l.23.17a87.07,87.07,0,1,1-101-.17Z"/><path class="cls-21" d="M41.42,53.84a50.34,50.34,0,1,1,100.67,0V307.53l.24.17a87,87,0,1,1-100.91-.17Z"/><path class="cls-22" d="M40.44,52.83a50.31,50.31,0,0,1,100.62,0V306.54l.24.17a87,87,0,1,1-100.86-.17Z"/><path class="cls-23" d="M39.46,51.83a50.29,50.29,0,1,1,100.57,0V305.55l.24.17a87,87,0,1,1-100.81-.18Z"/><path class="Graphic-Style" d="M88.74,462.49a87,87,0,0,1-50.5-157.77l.24-.17V50.82a50.26,50.26,0,0,1,100.52,0V304.55l.23.17A87,87,0,0,1,88.74,462.49Z"/></g><path class="cls-24" d="M88.74,463.06a87.53,87.53,0,0,1-50.82-158.8V50.82a50.83,50.83,0,0,1,101.65,0V304.26a87.53,87.53,0,0,1-50.82,158.8Z"/><path class="cls-25" d="M88.74,460.24a84.71,84.71,0,0,1-48-154.51V50.82a48,48,0,0,1,96,0V305.73a84.72,84.72,0,0,1-48,154.51Z"/><g class="cls-2"><path class="cls-3" d="M102.8,453.12a63.53,63.53,0,0,1-36-115.88L76,330.93V234.29a26.83,26.83,0,0,1,53.65,0v96.64l9.17,6.31a63.53,63.53,0,0,1-36,115.88Z"/><path class="cls-4" d="M102.13,452.42a63.5,63.5,0,0,1-36-115.83l9.18-6.32V233.62a26.8,26.8,0,0,1,53.59,0v96.65l9.19,6.32a63.5,63.5,0,0,1-36,115.83Z"/><path class="cls-5" d="M101.46,451.73a63.48,63.48,0,0,1-36-115.79l9.2-6.33V233a26.77,26.77,0,0,1,53.54,0v96.65l9.19,6.33a63.48,63.48,0,0,1-36,115.79Z"/><path class="cls-6" d="M100.79,451A63.45,63.45,0,0,1,64.84,335.29L74.05,329V232.29a26.74,26.74,0,1,1,53.48,0V329l9.21,6.33A63.45,63.45,0,0,1,100.79,451Z"/><path class="cls-7" d="M100.12,450.33A63.42,63.42,0,0,1,64.19,334.65l9.21-6.35V231.62a26.72,26.72,0,0,1,53.44,0V328.3l9.21,6.35a63.42,63.42,0,0,1-35.93,115.68Z"/><path class="cls-8" d="M99.45,449.64A63.4,63.4,0,0,1,63.53,334l9.23-6.35V231a26.69,26.69,0,0,1,53.38,0v96.7l9.23,6.35A63.4,63.4,0,0,1,99.45,449.64Z"/><path class="cls-9" d="M98.78,448.94a63.37,63.37,0,0,1-35.9-115.59L72.12,327V230.28a26.66,26.66,0,0,1,53.32,0V327l9.24,6.36a63.37,63.37,0,0,1-35.9,115.59Z"/><path class="cls-10" d="M98.11,448.24A63.34,63.34,0,0,1,62.22,332.71l9.26-6.37V229.61a26.64,26.64,0,1,1,53.27,0v96.73l9.25,6.37A63.34,63.34,0,0,1,98.11,448.24Z"/><path class="cls-11" d="M97.44,447.55A63.32,63.32,0,0,1,61.57,332.06l9.26-6.38V228.94a26.61,26.61,0,0,1,53.22,0v96.74l9.26,6.38A63.31,63.31,0,0,1,97.44,447.55Z"/><path class="cls-12" d="M96.77,446.85A63.29,63.29,0,0,1,60.91,331.41L70.19,325V228.27a26.58,26.58,0,0,1,53.16,0V325l9.28,6.38A63.29,63.29,0,0,1,96.77,446.85Z"/><path class="cls-13" d="M96.1,446.15A63.26,63.26,0,0,1,60.26,330.76l9.29-6.39V227.6a26.56,26.56,0,0,1,53.11,0v96.77l9.29,6.39A63.27,63.27,0,0,1,96.1,446.15Z"/><path class="cls-14" d="M95.43,445.46A63.23,63.23,0,0,1,59.61,330.12l9.3-6.4V226.93a26.53,26.53,0,1,1,53.05,0v96.79l9.3,6.4A63.23,63.23,0,0,1,95.43,445.46Z"/><path class="cls-15" d="M94.76,444.76A63.21,63.21,0,0,1,59,329.47l9.31-6.41v-96.8a26.5,26.5,0,0,1,53,0v96.8l9.32,6.41A63.21,63.21,0,0,1,94.76,444.76Z"/><path class="cls-16" d="M94.09,444.06A63.18,63.18,0,0,1,58.3,328.82l9.32-6.41V225.59a26.48,26.48,0,0,1,52.95,0v96.82l9.32,6.41a63.18,63.18,0,0,1-35.8,115.24Z"/><path class="cls-17" d="M93.42,443.37a63.16,63.16,0,0,1-35.78-115.2L67,321.75V224.92a26.45,26.45,0,1,1,52.89,0v96.83l9.34,6.42a63.16,63.16,0,0,1-35.79,115.2Z"/><path class="cls-18" d="M92.76,442.67A63.12,63.12,0,0,1,57,327.53l9.35-6.43V224.25a26.42,26.42,0,0,1,52.84,0V321.1l9.34,6.43A63.12,63.12,0,0,1,92.76,442.67Z"/><path class="cls-19" d="M92.09,442a63.11,63.11,0,0,1-35.76-115.1l9.36-6.44V223.58a26.4,26.4,0,0,1,52.79,0v96.86l9.36,6.44A63.11,63.11,0,0,1,92.09,442Z"/><path class="cls-20" d="M91.42,441.28a63.07,63.07,0,0,1-35.74-115l9.37-6.44V222.91a26.37,26.37,0,0,1,52.73,0v96.88l9.37,6.44a63.07,63.07,0,0,1-35.73,115Z"/><path class="cls-21" d="M90.75,440.58A63,63,0,0,1,55,325.59l9.38-6.46V222.24a26.34,26.34,0,0,1,52.68,0v96.89l9.38,6.46a63,63,0,0,1-35.72,115Z"/><path class="cls-22" d="M90.08,439.89A63,63,0,0,1,54.37,324.94l9.4-6.47v-96.9a26.31,26.31,0,0,1,52.62,0v96.9l9.39,6.47a63,63,0,0,1-35.7,115Z"/><path class="cls-23" d="M89.41,439.19a63,63,0,0,1-35.69-114.9l9.4-6.47V220.9a26.29,26.29,0,0,1,52.57,0v96.92l9.41,6.47a63,63,0,0,1-35.69,114.9Z"/><path class="Graphic-Style" d="M88.74,438.49A63,63,0,0,1,53.06,323.64l9.42-6.48V220.24a26.26,26.26,0,0,1,52.52,0v96.92l9.41,6.48A63,63,0,0,1,88.74,438.49Z"/></g><path class="cls-26" d="M88.74,439.06a63.53,63.53,0,0,1-36-115.88l9.17-6.31V220.24a26.83,26.83,0,1,1,53.65,0v96.63l9.17,6.31a63.53,63.53,0,0,1-36,115.88Z"/><path class="cls-27" d="M88.74,436.24A60.71,60.71,0,0,1,54.34,325.5l10.4-7.15V220.24a24,24,0,0,1,48,0v98.11l10.39,7.15A60.71,60.71,0,0,1,88.74,436.24Z"/><path class="Graphic-Style" d="M135.09,279.53h-8.47a1.41,1.41,0,1,1,0-2.82h8.47a1.41,1.41,0,0,1,0,2.82Z"/><path class="Graphic-Style" d="M135.09,251.29h-8.47a1.41,1.41,0,0,1,0-2.82h8.47a1.41,1.41,0,1,1,0,2.82Z"/><path class="Graphic-Style" d="M135.09,223.06h-8.47a1.41,1.41,0,0,1,0-2.82h8.47a1.41,1.41,0,0,1,0,2.82Z"/><path class="Graphic-Style" d="M135.09,194.82h-8.47a1.41,1.41,0,0,1,0-2.82h8.47a1.41,1.41,0,0,1,0,2.82Z"/><path class="Graphic-Style" d="M135.09,166.59h-8.47a1.42,1.42,0,0,1,0-2.83h8.47a1.42,1.42,0,0,1,0,2.83Z"/><path class="Graphic-Style" d="M135.09,138.35h-8.47a1.41,1.41,0,0,1,0-2.82h8.47a1.41,1.41,0,1,1,0,2.82Z"/><path class="Graphic-Style" d="M135.09,110.12h-8.47a1.42,1.42,0,0,1,0-2.83h8.47a1.42,1.42,0,0,1,0,2.83Z"/><path class="Graphic-Style" d="M135.09,81.88h-8.47a1.41,1.41,0,0,1,0-2.82h8.47a1.41,1.41,0,0,1,0,2.82Z"/><path class="Graphic-Style" d="M135.09,53.65h-8.47a1.42,1.42,0,0,1,0-2.83h8.47a1.42,1.42,0,0,1,0,2.83Z"/></g></g></g></svg>