<svg xmlns="http://www.w3.org/2000/svg" xmlns:xlink="http://www.w3.org/1999/xlink" viewBox="0 0 196.18 482.97"><defs><style>.cls-1{isolation:isolate;}.cls-2{mix-blend-mode:multiply;}.cls-3{fill:#fff;opacity:0;}.cls-4{fill:#f9f9f9;opacity:0.05;}.cls-5{fill:#f3f3f3;opacity:0.1;}.cls-6{fill:#ededee;opacity:0.14;}.cls-7{fill:#e7e7e8;opacity:0.19;}.cls-8{fill:#e1e1e2;opacity:0.24;}.cls-9{fill:#dbdbdc;opacity:0.29;}.cls-10{fill:#d5d5d6;opacity:0.33;}.cls-11{fill:#cfcfd1;opacity:0.38;}.cls-12{fill:#c9c9cb;opacity:0.43;}.cls-13{fill:#c3c3c5;opacity:0.48;}.cls-14{fill:#bcbebf;opacity:0.52;}.cls-15{fill:#b6b8b9;opacity:0.57;}.cls-16{fill:#b0b2b3;opacity:0.62;}.cls-17{fill:#aaacae;opacity:0.67;}.cls-18{fill:#a4a6a8;opacity:0.71;}.cls-19{fill:#9ea0a2;opacity:0.76;}.cls-20{fill:#989a9c;opacity:0.81;}.cls-21{fill:#929496;opacity:0.86;}.cls-22{fill:#8c8e91;opacity:0.9;}.cls-23{fill:#86888b;opacity:0.95;}.Graphic-Style{fill:#808285;}.cls-24{fill:url(#linear-gradient);}.cls-25{fill:url(#linear-gradient-2);}.cls-26{fill:url(#linear-gradient-3);}.cls-27{fill:url(#linear-gradient-4);}</style><linearGradient id="linear-gradient" y1="230.93" x2="175.06" y2="230.93" gradientUnits="userSpaceOnUse"><stop offset="0" stop-color="#fff"/><stop offset="1" stop-color="#d1d3d4"/></linearGradient><linearGradient id="linear-gradient-2" x1="2.82" y1="230.93" x2="172.24" y2="230.93" gradientUnits="userSpaceOnUse"><stop offset="0" stop-color="#d1d3d4"/><stop offset="1" stop-color="#fff"/></linearGradient><linearGradient id="linear-gradient-3" x1="24" y1="301.52" x2="151.06" y2="301.52" gradientUnits="userSpaceOnUse"><stop offset="0" stop-color="#a364ab"/><stop offset="1" stop-color="#8c3d96"/></linearGradient><linearGradient id="linear-gradient-4" x1="26.82" y1="301.52" x2="148.24" y2="301.52" gradientUnits="userSpaceOnUse"><stop offset="0" stop-color="#8c3d96"/><stop offset="1" stop-color="#a364ab"/></linearGradient></defs><g class="cls-1"><g id="templates"><g id="_5" data-name="5"><g class="cls-2"><path class="cls-3" d="M108.65,483.58a87.53,87.53,0,0,1-50.82-158.8V71.34a50.83,50.83,0,0,1,101.65,0V324.78a87.53,87.53,0,0,1-50.82,158.8Z"/><path class="cls-4" d="M56.85,70.33a50.8,50.8,0,0,1,101.59,0V323.79l.24.17a87.51,87.51,0,1,1-101.83-.17Z"/><path class="cls-5" d="M55.87,69.33a50.77,50.77,0,0,1,101.54,0V322.8l.24.17a87.48,87.48,0,1,1-101.78-.17Z"/><path class="cls-6" d="M54.89,68.32a50.74,50.74,0,0,1,101.48,0V321.81l.24.17a87.44,87.44,0,1,1-101.72-.18Z"/><path class="cls-7" d="M53.91,67.32a50.72,50.72,0,1,1,101.43,0V320.81l.24.18a87.42,87.42,0,1,1-101.67-.18Z"/><path class="cls-8" d="M52.93,66.31a50.69,50.69,0,1,1,101.38,0V319.82l.24.17a87.4,87.4,0,1,1-101.62-.17Z"/><path class="cls-9" d="M52,65.31a50.67,50.67,0,1,1,101.33,0V318.83l.24.17A87.37,87.37,0,1,1,52,318.83Z"/><path class="cls-10" d="M51,64.3a50.64,50.64,0,0,1,101.27,0V317.84l.24.17A87.34,87.34,0,1,1,51,317.84Z"/><path class="cls-11" d="M50,63.3a50.61,50.61,0,0,1,101.22,0V316.85l.24.17A87.31,87.31,0,1,1,50,316.84Z"/><path class="cls-12" d="M49,62.29a50.58,50.58,0,0,1,101.16,0V315.85l.24.18A87.28,87.28,0,1,1,49,315.85Z"/><path class="cls-13" d="M48,61.28a50.56,50.56,0,0,1,101.11,0V314.86l.23.17A87.26,87.26,0,1,1,48,314.86Z"/><path class="cls-14" d="M47.06,60.28a50.53,50.53,0,1,1,101.05,0V313.87l.24.17a87.24,87.24,0,1,1-101.29-.17Z"/><path class="cls-15" d="M46.08,59.27a50.5,50.5,0,0,1,101,0V312.88l.24.17a87.21,87.21,0,1,1-101.24-.17Z"/><path class="cls-16" d="M45.1,58.27a50.48,50.48,0,1,1,101,0V311.89l.24.17a87.19,87.19,0,1,1-101.19-.17Z"/><path class="cls-17" d="M44.12,57.26a50.45,50.45,0,0,1,100.9,0V310.9l.23.17a87.14,87.14,0,1,1-101.13-.18Z"/><path class="cls-18" d="M43.14,56.26a50.42,50.42,0,1,1,100.84,0V309.9l.24.17a87.12,87.12,0,1,1-101.08-.17Z"/><path class="cls-19" d="M42.16,55.25a50.4,50.4,0,0,1,100.79,0V308.91l.24.17a87.1,87.1,0,1,1-101-.17Z"/><path class="cls-20" d="M41.19,54.24a50.37,50.37,0,0,1,100.73,0V307.92l.23.17a87.07,87.07,0,1,1-101-.17Z"/><path class="cls-21" d="M40.21,53.24a50.34,50.34,0,0,1,100.68,0V306.93l.23.17a87,87,0,1,1-100.91-.17Z"/><path class="cls-22" d="M39.23,52.23a50.31,50.31,0,1,1,100.62,0V305.94l.24.17a87,87,0,1,1-100.86-.18Z"/><path class="cls-23" d="M38.25,51.23a50.29,50.29,0,1,1,100.57,0V304.94l.24.17a87,87,0,1,1-100.81-.17Z"/><path class="Graphic-Style" d="M87.53,461.89A87,87,0,0,1,37,304.12l.23-.17V50.22a50.26,50.26,0,1,1,100.52,0V304l.23.17A87,87,0,0,1,87.53,461.89Z"/></g><path class="cls-24" d="M87.53,462.46a87.53,87.53,0,0,1-50.82-158.8V50.22a50.82,50.82,0,1,1,101.64,0V303.66a87.53,87.53,0,0,1-50.82,158.8Z"/><path class="cls-25" d="M87.53,459.63a84.7,84.7,0,0,1-48-154.5V50.22a48,48,0,0,1,96,0V305.13a84.7,84.7,0,0,1-48,154.5Z"/><g class="cls-2"><path class="cls-3" d="M101.59,452.52a63.53,63.53,0,0,1-36-115.88l9.18-6.32V205.46a26.82,26.82,0,1,1,53.64,0V330.32l9.17,6.32a63.53,63.53,0,0,1-36,115.88Z"/><path class="cls-4" d="M100.92,451.82A63.5,63.5,0,0,1,64.94,336l9.18-6.32V204.79a26.8,26.8,0,0,1,53.6,0V329.67L136.9,336a63.5,63.5,0,0,1-36,115.83Z"/><path class="cls-5" d="M100.25,451.12a63.47,63.47,0,0,1-36-115.78L73.48,329V204.12a26.77,26.77,0,0,1,53.54,0V329l9.19,6.33a63.47,63.47,0,0,1-36,115.78Z"/><path class="cls-6" d="M99.58,450.43A63.45,63.45,0,0,1,63.63,334.69l9.21-6.33V203.45a26.74,26.74,0,0,1,53.48,0V328.36l9.21,6.33A63.45,63.45,0,0,1,99.58,450.43Z"/><path class="cls-7" d="M98.91,449.73A63.42,63.42,0,0,1,63,334.05l9.21-6.35V202.78a26.72,26.72,0,0,1,53.44,0V327.7l9.21,6.35A63.42,63.42,0,0,1,98.91,449.73Z"/><path class="cls-8" d="M98.24,449A63.4,63.4,0,0,1,62.32,333.4l9.23-6.35V202.11a26.69,26.69,0,0,1,53.38,0V327.05l9.23,6.35A63.39,63.39,0,0,1,98.24,449Z"/><path class="cls-9" d="M97.57,448.34a63.37,63.37,0,0,1-35.9-115.59l9.24-6.36V201.44a26.66,26.66,0,0,1,53.32,0v125l9.25,6.36A63.37,63.37,0,0,1,97.57,448.34Z"/><path class="cls-10" d="M96.9,447.64A63.35,63.35,0,0,1,61,332.1l9.26-6.36v-125a26.64,26.64,0,0,1,53.27,0v125l9.25,6.36A63.35,63.35,0,0,1,96.9,447.64Z"/><path class="cls-11" d="M96.23,447A63.32,63.32,0,0,1,60.36,331.46l9.26-6.38v-125a26.61,26.61,0,0,1,53.22,0v125l9.27,6.38A63.32,63.32,0,0,1,96.23,447Z"/><path class="cls-12" d="M95.56,446.25A63.29,63.29,0,0,1,59.71,330.81L69,324.43v-125a26.58,26.58,0,1,1,53.16,0v125l9.28,6.38A63.29,63.29,0,0,1,95.56,446.25Z"/><path class="cls-13" d="M94.89,445.55A63.26,63.26,0,0,1,59.05,330.16l9.29-6.39v-125a26.56,26.56,0,0,1,53.11,0v125l9.29,6.39A63.27,63.27,0,0,1,94.89,445.55Z"/><path class="cls-14" d="M94.22,444.86A63.23,63.23,0,0,1,58.4,329.52l9.3-6.4v-125a26.53,26.53,0,0,1,53.05,0v125l9.3,6.4A63.23,63.23,0,0,1,94.22,444.86Z"/><path class="cls-15" d="M93.55,444.16A63.21,63.21,0,0,1,57.74,328.87l9.31-6.41v-125a26.51,26.51,0,0,1,53,0v125l9.31,6.41A63.21,63.21,0,0,1,93.55,444.16Z"/><path class="cls-16" d="M92.89,443.46a63.18,63.18,0,0,1-35.8-115.24l9.32-6.42v-125a26.48,26.48,0,0,1,53,0V321.8l9.32,6.42A63.18,63.18,0,0,1,92.89,443.46Z"/><path class="cls-17" d="M92.22,442.77a63.16,63.16,0,0,1-35.79-115.2l9.34-6.42V196.09a26.45,26.45,0,1,1,52.89,0V321.15l9.34,6.42a63.16,63.16,0,0,1-35.78,115.2Z"/><path class="cls-18" d="M91.55,442.07A63.12,63.12,0,0,1,55.78,326.93l9.35-6.44V195.42a26.42,26.42,0,0,1,52.84,0V320.49l9.34,6.44A63.12,63.12,0,0,1,91.55,442.07Z"/><path class="cls-19" d="M90.88,441.37A63.1,63.1,0,0,1,55.13,326.28l9.35-6.44V194.75a26.4,26.4,0,1,1,52.79,0V319.84l9.36,6.44A63.1,63.1,0,0,1,90.88,441.37Z"/><path class="cls-20" d="M90.21,440.68a63.08,63.08,0,0,1-35.74-115l9.37-6.45V194.08a26.37,26.37,0,1,1,52.73,0v125.1l9.37,6.45A63.07,63.07,0,0,1,90.21,440.68Z"/><path class="cls-21" d="M89.54,440A63,63,0,0,1,53.82,325l9.38-6.45V193.41a26.34,26.34,0,1,1,52.68,0V318.53l9.38,6.45A63.05,63.05,0,0,1,89.54,440Z"/><path class="cls-22" d="M88.87,439.29a63,63,0,0,1-35.71-115l9.4-6.47V192.74a26.31,26.31,0,0,1,52.62,0V317.87l9.39,6.47a63,63,0,0,1-35.7,115Z"/><path class="cls-23" d="M88.2,438.59a63,63,0,0,1-35.69-114.9l9.4-6.47V192.07a26.29,26.29,0,1,1,52.57,0V317.22l9.41,6.47A63,63,0,0,1,88.2,438.59Z"/><path class="Graphic-Style" d="M87.53,437.89A63,63,0,0,1,51.85,323l9.42-6.48V191.4a26.26,26.26,0,1,1,52.52,0V316.56L123.2,323A63,63,0,0,1,87.53,437.89Z"/></g><path class="cls-26" d="M87.53,438.46a63.53,63.53,0,0,1-36-115.88l9.18-6.32V191.4a26.82,26.82,0,0,1,53.64,0V316.26l9.17,6.32a63.53,63.53,0,0,1-36,115.88Z"/><path class="cls-27" d="M87.53,435.63A60.71,60.71,0,0,1,53.13,324.9l10.4-7.15V191.4a24,24,0,0,1,48,0V317.75l10.39,7.15A60.7,60.7,0,0,1,87.53,435.63Z"/><path class="Graphic-Style" d="M133.88,278.93h-8.47a1.42,1.42,0,0,1,0-2.83h8.47a1.42,1.42,0,0,1,0,2.83Z"/><path class="Graphic-Style" d="M133.88,250.69h-8.47a1.41,1.41,0,0,1,0-2.82h8.47a1.41,1.41,0,0,1,0,2.82Z"/><path class="Graphic-Style" d="M133.88,222.46h-8.47a1.42,1.42,0,0,1,0-2.83h8.47a1.42,1.42,0,0,1,0,2.83Z"/><path class="Graphic-Style" d="M133.88,194.22h-8.47a1.41,1.41,0,1,1,0-2.82h8.47a1.41,1.41,0,0,1,0,2.82Z"/><path class="Graphic-Style" d="M133.88,166h-8.47a1.42,1.42,0,0,1,0-2.83h8.47a1.42,1.42,0,0,1,0,2.83Z"/><path class="Graphic-Style" d="M133.88,137.75h-8.47a1.41,1.41,0,0,1,0-2.82h8.47a1.41,1.41,0,0,1,0,2.82Z"/><path class="Graphic-Style" d="M133.88,109.52h-8.47a1.42,1.42,0,0,1,0-2.83h8.47a1.42,1.42,0,0,1,0,2.83Z"/><path class="Graphic-Style" d="M133.88,81.28h-8.47a1.41,1.41,0,1,1,0-2.82h8.47a1.41,1.41,0,0,1,0,2.82Z"/><path class="Graphic-Style" d="M133.88,53.05h-8.47a1.42,1.42,0,0,1,0-2.83h8.47a1.42,1.42,0,0,1,0,2.83Z"/></g></g></g></svg>