<svg xmlns="http://www.w3.org/2000/svg" xmlns:xlink="http://www.w3.org/1999/xlink" viewBox="0 0 196.18 482.97"><defs><style>.cls-1{isolation:isolate;}.cls-2{mix-blend-mode:multiply;}.cls-3{fill:#fff;opacity:0;}.cls-4{fill:#f9f9f9;opacity:0.05;}.cls-5{fill:#f3f3f3;opacity:0.1;}.cls-6{fill:#ededee;opacity:0.14;}.cls-7{fill:#e7e7e8;opacity:0.19;}.cls-8{fill:#e1e1e2;opacity:0.24;}.cls-9{fill:#dbdbdc;opacity:0.29;}.cls-10{fill:#d5d5d6;opacity:0.33;}.cls-11{fill:#cfcfd1;opacity:0.38;}.cls-12{fill:#c9c9cb;opacity:0.43;}.cls-13{fill:#c3c3c5;opacity:0.48;}.cls-14{fill:#bcbebf;opacity:0.52;}.cls-15{fill:#b6b8b9;opacity:0.57;}.cls-16{fill:#b0b2b3;opacity:0.62;}.cls-17{fill:#aaacae;opacity:0.67;}.cls-18{fill:#a4a6a8;opacity:0.71;}.cls-19{fill:#9ea0a2;opacity:0.76;}.cls-20{fill:#989a9c;opacity:0.81;}.cls-21{fill:#929496;opacity:0.86;}.cls-22{fill:#8c8e91;opacity:0.9;}.cls-23{fill:#86888b;opacity:0.95;}.Graphic-Style{fill:#808285;}.cls-24{fill:url(#linear-gradient);}.cls-25{fill:url(#linear-gradient-2);}.cls-26{fill:url(#linear-gradient-3);}.cls-27{fill:url(#linear-gradient-4);}</style><linearGradient id="linear-gradient" x1="0.93" y1="235.78" x2="175.99" y2="235.78" gradientUnits="userSpaceOnUse"><stop offset="0" stop-color="#fff"/><stop offset="1" stop-color="#d1d3d4"/></linearGradient><linearGradient id="linear-gradient-2" x1="3.76" y1="235.78" x2="173.17" y2="235.78" gradientUnits="userSpaceOnUse"><stop offset="0" stop-color="#d1d3d4"/><stop offset="1" stop-color="#fff"/></linearGradient><linearGradient id="linear-gradient-3" x1="24.93" y1="264.01" x2="151.99" y2="264.01" gradientUnits="userSpaceOnUse"><stop offset="0" stop-color="#f67950"/><stop offset="1" stop-color="#f15a29"/></linearGradient><linearGradient id="linear-gradient-4" x1="27.76" y1="264.01" x2="149.17" y2="264.01" gradientUnits="userSpaceOnUse"><stop offset="0" stop-color="#f15a29"/><stop offset="1" stop-color="#f67950"/></linearGradient></defs><g class="cls-1"><g id="templates"><g id="_8" data-name="8"><g class="cls-2"><path class="cls-3" d="M109.58,488.42A87.53,87.53,0,0,1,58.76,329.63V76.19a50.82,50.82,0,0,1,101.64,0V329.63a87.53,87.53,0,0,1-50.82,158.79Z"/><path class="cls-4" d="M57.78,75.18a50.8,50.8,0,0,1,101.59,0V328.64l.24.17a87.51,87.51,0,1,1-101.83-.17Z"/><path class="cls-5" d="M56.8,74.18a50.77,50.77,0,0,1,101.54,0V327.65l.24.17a87.47,87.47,0,1,1-101.78-.18Z"/><path class="cls-6" d="M55.82,73.17a50.75,50.75,0,0,1,101.49,0V326.65l.24.18a87.44,87.44,0,1,1-101.73-.18Z"/><path class="cls-7" d="M54.84,72.17a50.72,50.72,0,1,1,101.43,0V325.66l.24.17a87.42,87.42,0,1,1-101.67-.17Z"/><path class="cls-8" d="M53.86,71.16a50.69,50.69,0,0,1,101.38,0V324.67l.24.17a87.4,87.4,0,1,1-101.61-.17Z"/><path class="cls-9" d="M52.89,70.16a50.66,50.66,0,1,1,101.32,0V323.68l.24.17a87.37,87.37,0,1,1-101.56-.17Z"/><path class="cls-10" d="M51.91,69.15a50.64,50.64,0,1,1,101.27,0V322.69l.24.17a87.35,87.35,0,1,1-101.51-.17Z"/><path class="cls-11" d="M50.93,68.14a50.61,50.61,0,0,1,101.21,0V321.69l.24.18a87.31,87.31,0,1,1-101.45-.18Z"/><path class="cls-12" d="M50,67.14a50.58,50.58,0,0,1,101.16,0V320.7l.24.17A87.29,87.29,0,1,1,50,320.7Z"/><path class="cls-13" d="M49,66.13a50.56,50.56,0,0,1,101.11,0V319.71l.24.17A87.27,87.27,0,1,1,49,319.71Z"/><path class="cls-14" d="M48,65.13a50.53,50.53,0,0,1,101.06,0V318.72l.24.17A87.23,87.23,0,1,1,48,318.72Z"/><path class="cls-15" d="M47,64.12a50.5,50.5,0,1,1,101,0V317.73l.24.17A87.2,87.2,0,1,1,47,317.73Z"/><path class="cls-16" d="M46,63.12a50.48,50.48,0,1,1,100.95,0V316.74l.24.17A87.17,87.17,0,1,1,46,316.73Z"/><path class="cls-17" d="M45.06,62.11a50.45,50.45,0,1,1,100.89,0V315.74s.21.16.24.17a87.16,87.16,0,1,1-101.13-.17Z"/><path class="cls-18" d="M44.08,61.1a50.42,50.42,0,1,1,100.84,0V314.75l.23.17a87.13,87.13,0,1,1-101.07-.17Z"/><path class="cls-19" d="M43.1,60.1a50.39,50.39,0,0,1,100.78,0V313.76l.24.17a87.1,87.1,0,1,1-101-.17Z"/><path class="cls-20" d="M42.12,59.09a50.37,50.37,0,0,1,100.73,0V312.77l.24.17a87.08,87.08,0,1,1-101-.17Z"/><path class="cls-21" d="M41.14,58.09a50.34,50.34,0,1,1,100.68,0V311.78l.24.17a87,87,0,1,1-100.92-.17Z"/><path class="cls-22" d="M40.16,57.08a50.32,50.32,0,0,1,100.63,0v253.7s.23.17.23.17a87,87,0,1,1-100.86-.17Z"/><path class="cls-23" d="M39.18,56.08a50.29,50.29,0,1,1,100.57,0V309.79l.24.17a87,87,0,1,1-100.81-.17Z"/><path class="Graphic-Style" d="M88.46,466.74A87,87,0,0,1,38,309l.24-.17V55.07a50.26,50.26,0,0,1,100.52,0V308.8l.24.17a87,87,0,0,1-50.5,157.77Z"/></g><path class="cls-24" d="M88.46,467.31a87.53,87.53,0,0,1-50.82-158.8V55.07a50.83,50.83,0,0,1,101.65,0V308.51a87.54,87.54,0,0,1-50.83,158.8Z"/><path class="cls-25" d="M88.46,464.48a84.71,84.71,0,0,1-48-154.5V55.07a48,48,0,0,1,96,0V310a84.7,84.7,0,0,1-48,154.5Z"/><g class="cls-2"><path class="cls-3" d="M102.52,457.37a63.53,63.53,0,0,1-36-115.89l9.17-6.31V125.6a26.83,26.83,0,0,1,53.65,0V335.17l9.17,6.31a63.54,63.54,0,0,1-36,115.89Z"/><path class="cls-4" d="M101.85,456.67a63.5,63.5,0,0,1-36-115.83l9.19-6.32V124.93a26.8,26.8,0,1,1,53.59,0V334.52l9.18,6.32a63.5,63.5,0,0,1-36,115.83Z"/><path class="cls-5" d="M101.18,456a63.48,63.48,0,0,1-36-115.78l9.19-6.33V124.26a26.77,26.77,0,1,1,53.54,0v209.6l9.2,6.33a63.48,63.48,0,0,1-36,115.78Z"/><path class="cls-6" d="M100.51,455.28A63.46,63.46,0,0,1,64.56,339.54l9.21-6.33V123.59a26.75,26.75,0,0,1,53.49,0V333.21l9.2,6.33a63.45,63.45,0,0,1-35.95,115.74Z"/><path class="cls-7" d="M99.84,454.58A63.42,63.42,0,0,1,63.91,338.9l9.22-6.35V122.92a26.72,26.72,0,0,1,53.43,0V332.55l9.22,6.35A63.42,63.42,0,0,1,99.84,454.58Z"/><path class="cls-8" d="M99.17,453.88A63.39,63.39,0,0,1,63.26,338.25l9.23-6.35V122.25a26.69,26.69,0,1,1,53.37,0V331.9l9.23,6.35A63.39,63.39,0,0,1,99.17,453.88Z"/><path class="cls-9" d="M98.51,453.19A63.37,63.37,0,0,1,62.6,337.6l9.24-6.36V121.58a26.67,26.67,0,0,1,53.33,0V331.24l9.24,6.36a63.37,63.37,0,0,1-35.9,115.59Z"/><path class="cls-10" d="M97.84,452.49A63.34,63.34,0,0,1,62,337l9.25-6.36V120.91a26.64,26.64,0,0,1,53.27,0V330.59l9.25,6.36A63.34,63.34,0,0,1,97.84,452.49Z"/><path class="cls-11" d="M97.17,451.79A63.31,63.31,0,0,1,61.29,336.31l9.27-6.38V120.24a26.61,26.61,0,0,1,53.21,0V329.93l9.27,6.38A63.31,63.31,0,0,1,97.17,451.79Z"/><path class="cls-12" d="M96.5,451.1A63.29,63.29,0,0,1,60.64,335.66l9.28-6.38V119.58a26.58,26.58,0,1,1,53.16,0v209.7l9.27,6.38A63.29,63.29,0,0,1,96.5,451.1Z"/><path class="cls-13" d="M95.83,450.4A63.27,63.27,0,0,1,60,335l9.29-6.39V118.91a26.56,26.56,0,1,1,53.11,0V328.62l9.29,6.39A63.26,63.26,0,0,1,95.83,450.4Z"/><path class="cls-14" d="M95.16,449.7A63.23,63.23,0,0,1,59.33,334.36l9.3-6.4V118.24a26.53,26.53,0,1,1,53.06,0V328l9.3,6.4A63.24,63.24,0,0,1,95.16,449.7Z"/><path class="cls-15" d="M94.49,449A63.2,63.2,0,0,1,58.68,333.72L68,327.31V117.57a26.5,26.5,0,0,1,53,0V327.31l9.31,6.41A63.21,63.21,0,0,1,94.49,449Z"/><path class="cls-16" d="M93.82,448.31A63.18,63.18,0,0,1,58,333.07l9.33-6.42V116.9a26.47,26.47,0,1,1,52.94,0V326.65l9.33,6.42a63.18,63.18,0,0,1-35.8,115.24Z"/><path class="cls-17" d="M93.15,447.62a63.16,63.16,0,0,1-35.78-115.2L66.7,326V116.23a26.45,26.45,0,1,1,52.9,0V326l9.33,6.42a63.16,63.16,0,0,1-35.78,115.2Z"/><path class="cls-18" d="M92.48,446.92A63.12,63.12,0,0,1,56.71,331.78l9.35-6.44V115.56a26.42,26.42,0,1,1,52.84,0V325.34l9.35,6.44A63.12,63.12,0,0,1,92.48,446.92Z"/><path class="cls-19" d="M91.81,446.22A63.1,63.1,0,0,1,56.06,331.13l9.36-6.44V114.89a26.39,26.39,0,1,1,52.78,0v209.8l9.36,6.44A63.1,63.1,0,0,1,91.81,446.22Z"/><path class="cls-20" d="M91.14,445.53a63.08,63.08,0,0,1-35.74-115L64.78,324V114.22a26.37,26.37,0,1,1,52.73,0V324l9.37,6.45a63.08,63.08,0,0,1-35.74,115Z"/><path class="cls-21" d="M90.47,444.83a63.05,63.05,0,0,1-35.72-115l9.38-6.45V113.55a26.34,26.34,0,1,1,52.68,0V323.38l9.38,6.45a63,63,0,0,1-35.72,115Z"/><path class="cls-22" d="M89.8,444.13A63,63,0,0,1,54.1,329.19l9.39-6.47V112.88a26.31,26.31,0,0,1,52.62,0V322.72l9.4,6.47A63,63,0,0,1,89.8,444.13Z"/><path class="cls-23" d="M89.13,443.44a63,63,0,0,1-35.69-114.9l9.41-6.47V112.21a26.29,26.29,0,0,1,52.57,0V322.07l9.4,6.47a63,63,0,0,1-35.69,114.9Z"/><path class="Graphic-Style" d="M88.46,442.74A63,63,0,0,1,52.79,327.89l9.41-6.48V111.54a26.26,26.26,0,0,1,52.52,0V321.41l9.42,6.48A63,63,0,0,1,88.46,442.74Z"/></g><path class="cls-26" d="M88.46,443.31a63.53,63.53,0,0,1-36-115.89l9.17-6.31V111.54a26.83,26.83,0,0,1,53.65,0V321.11l9.17,6.31a63.54,63.54,0,0,1-36,115.89Z"/><path class="cls-27" d="M88.46,440.48A60.71,60.71,0,0,1,54.07,329.75l10.39-7.15V111.54a24,24,0,0,1,48,0V322.6l10.4,7.15a60.71,60.71,0,0,1-34.4,110.73Z"/><path class="Graphic-Style" d="M134.82,283.78h-8.47a1.42,1.42,0,1,1,0-2.83h8.47a1.42,1.42,0,0,1,0,2.83Z"/><path class="Graphic-Style" d="M134.82,255.54h-8.47a1.41,1.41,0,1,1,0-2.82h8.47a1.41,1.41,0,0,1,0,2.82Z"/><path class="Graphic-Style" d="M134.82,227.31h-8.47a1.42,1.42,0,1,1,0-2.83h8.47a1.42,1.42,0,0,1,0,2.83Z"/><path class="Graphic-Style" d="M134.82,199.07h-8.47a1.41,1.41,0,1,1,0-2.82h8.47a1.41,1.41,0,0,1,0,2.82Z"/><path class="Graphic-Style" d="M134.82,170.84h-8.47a1.42,1.42,0,1,1,0-2.83h8.47a1.42,1.42,0,0,1,0,2.83Z"/><path class="Graphic-Style" d="M134.82,142.6h-8.47a1.41,1.41,0,1,1,0-2.82h8.47a1.41,1.41,0,0,1,0,2.82Z"/><path class="Graphic-Style" d="M134.82,114.37h-8.47a1.42,1.42,0,1,1,0-2.83h8.47a1.42,1.42,0,0,1,0,2.83Z"/><path class="Graphic-Style" d="M134.82,86.13h-8.47a1.41,1.41,0,1,1,0-2.82h8.47a1.41,1.41,0,0,1,0,2.82Z"/><path class="Graphic-Style" d="M134.82,57.89h-8.47a1.41,1.41,0,1,1,0-2.82h8.47a1.41,1.41,0,0,1,0,2.82Z"/></g></g></g></svg>