<svg xmlns="http://www.w3.org/2000/svg" xmlns:xlink="http://www.w3.org/1999/xlink" viewBox="0 0 196.18 482.97"><defs><style>.cls-1{isolation:isolate;}.cls-2{mix-blend-mode:multiply;}.cls-3{fill:#fff;opacity:0;}.cls-4{fill:#f9f9f9;opacity:0.05;}.cls-5{fill:#f3f3f3;opacity:0.1;}.cls-6{fill:#ededee;opacity:0.14;}.cls-7{fill:#e7e7e8;opacity:0.19;}.cls-8{fill:#e1e1e2;opacity:0.24;}.cls-9{fill:#dbdbdc;opacity:0.29;}.cls-10{fill:#d5d5d6;opacity:0.33;}.cls-11{fill:#cfcfd1;opacity:0.38;}.cls-12{fill:#c9c9cb;opacity:0.43;}.cls-13{fill:#c3c3c5;opacity:0.48;}.cls-14{fill:#bcbebf;opacity:0.52;}.cls-15{fill:#b6b8b9;opacity:0.57;}.cls-16{fill:#b0b2b3;opacity:0.62;}.cls-17{fill:#aaacae;opacity:0.67;}.cls-18{fill:#a4a6a8;opacity:0.71;}.cls-19{fill:#9ea0a2;opacity:0.76;}.cls-20{fill:#989a9c;opacity:0.81;}.cls-21{fill:#929496;opacity:0.86;}.cls-22{fill:#8c8e91;opacity:0.9;}.cls-23{fill:#86888b;opacity:0.95;}.Graphic-Style{fill:#808285;}.cls-24{fill:url(#linear-gradient);}.cls-25{fill:url(#linear-gradient-2);}.cls-26{fill:url(#linear-gradient-3);}.cls-27{fill:url(#linear-gradient-4);}</style><linearGradient id="linear-gradient" x1="1.21" y1="235.78" x2="176.27" y2="235.78" gradientUnits="userSpaceOnUse"><stop offset="0" stop-color="#fff"/><stop offset="1" stop-color="#d1d3d4"/></linearGradient><linearGradient id="linear-gradient-2" x1="4.03" y1="235.78" x2="173.44" y2="235.78" gradientUnits="userSpaceOnUse"><stop offset="0" stop-color="#d1d3d4"/><stop offset="1" stop-color="#fff"/></linearGradient><linearGradient id="linear-gradient-3" x1="25.21" y1="249.89" x2="152.27" y2="249.89" gradientUnits="userSpaceOnUse"><stop offset="0" stop-color="#f033a3"/><stop offset="1" stop-color="#ec008c"/></linearGradient><linearGradient id="linear-gradient-4" x1="28.03" y1="249.89" x2="149.44" y2="249.89" gradientUnits="userSpaceOnUse"><stop offset="0" stop-color="#ec008c"/><stop offset="1" stop-color="#f033a3"/></linearGradient></defs><g class="cls-1"><g id="templates"><g id="_9" data-name="9"><g class="cls-2"><path class="cls-3" d="M109.86,488.42A87.53,87.53,0,0,1,59,329.63V76.19a50.83,50.83,0,0,1,101.65,0V329.63a87.53,87.53,0,0,1-50.82,158.79Z"/><path class="cls-4" d="M58.05,75.18a50.8,50.8,0,0,1,101.6,0V328.64l.24.17a87.51,87.51,0,1,1-101.83-.17Z"/><path class="cls-5" d="M57.08,74.18a50.77,50.77,0,1,1,101.53,0V327.65l.25.17a87.47,87.47,0,1,1-101.78-.18Z"/><path class="cls-6" d="M56.1,73.17a50.74,50.74,0,0,1,101.48,0V326.65l.24.18a87.44,87.44,0,1,1-101.72-.18Z"/><path class="cls-7" d="M55.12,72.17a50.72,50.72,0,1,1,101.43,0V325.66l.24.17a87.43,87.43,0,1,1-101.67-.17Z"/><path class="cls-8" d="M54.14,71.16a50.69,50.69,0,0,1,101.38,0V324.67l.24.17a87.4,87.4,0,1,1-101.62-.17Z"/><path class="cls-9" d="M53.16,70.16a50.66,50.66,0,1,1,101.32,0V323.68l.24.17a87.37,87.37,0,1,1-101.56-.17Z"/><path class="cls-10" d="M52.18,69.15a50.64,50.64,0,1,1,101.27,0V322.69l.24.17a87.34,87.34,0,1,1-101.51-.17Z"/><path class="cls-11" d="M51.2,68.14a50.61,50.61,0,0,1,101.22,0V321.69l.24.18a87.3,87.3,0,1,1-101.46-.18Z"/><path class="cls-12" d="M50.22,67.14a50.59,50.59,0,0,1,101.17,0V320.7a2.07,2.07,0,0,0,.24.17,87.29,87.29,0,1,1-101.4-.17Z"/><path class="cls-13" d="M49.25,66.13a50.55,50.55,0,1,1,101.1,0V319.71l.24.17a87.26,87.26,0,1,1-101.34-.17Z"/><path class="cls-14" d="M48.27,65.13a50.53,50.53,0,1,1,101,0V318.72l.24.17a87.24,87.24,0,1,1-101.29-.17Z"/><path class="cls-15" d="M47.29,64.12a50.5,50.5,0,1,1,101,0V317.73l.24.17a87.21,87.21,0,1,1-101.24-.17Z"/><path class="cls-16" d="M46.31,63.12a50.48,50.48,0,1,1,100.95,0V316.74l.23.17a87.17,87.17,0,1,1-101.18-.18Z"/><path class="cls-17" d="M45.33,62.11a50.45,50.45,0,1,1,100.89,0V315.74l.24.17a87.15,87.15,0,1,1-101.13-.17Z"/><path class="cls-18" d="M44.35,61.1a50.42,50.42,0,0,1,100.84,0V314.75l.24.17a87.12,87.12,0,1,1-101.08-.17Z"/><path class="cls-19" d="M43.37,60.1a50.4,50.4,0,0,1,100.79,0V313.76l.24.17a87.1,87.1,0,1,1-101-.17Z"/><path class="cls-20" d="M42.39,59.09a50.37,50.37,0,0,1,100.74,0V312.77l.23.17a87.07,87.07,0,1,1-101-.17Z"/><path class="cls-21" d="M41.42,58.09a50.34,50.34,0,1,1,100.67,0V311.78l.24.17a87,87,0,1,1-100.91-.17Z"/><path class="cls-22" d="M40.44,57.08a50.31,50.31,0,0,1,100.62,0v253.7l.24.17a87,87,0,1,1-100.86-.17Z"/><path class="cls-23" d="M39.46,56.08a50.29,50.29,0,1,1,100.57,0V309.79l.24.17a87,87,0,1,1-100.81-.17Z"/><path class="Graphic-Style" d="M88.74,466.74A87,87,0,0,1,38.24,309l.24-.17V55.07a50.26,50.26,0,0,1,100.52,0V308.8l.23.17A87,87,0,0,1,88.74,466.74Z"/></g><path class="cls-24" d="M88.74,467.31a87.53,87.53,0,0,1-50.82-158.8V55.07a50.83,50.83,0,0,1,101.65,0V308.51a87.53,87.53,0,0,1-50.82,158.8Z"/><path class="cls-25" d="M88.74,464.48a84.7,84.7,0,0,1-48-154.5V55.07a48,48,0,0,1,96,0V310a84.71,84.71,0,0,1-48,154.5Z"/><g class="cls-2"><path class="cls-3" d="M102.8,457.37a63.54,63.54,0,0,1-36-115.89L76,335.17V97.37a26.83,26.83,0,1,1,53.65,0v237.8l9.17,6.31a63.53,63.53,0,0,1-36,115.89Z"/><path class="cls-4" d="M102.13,456.67a63.5,63.5,0,0,1-36-115.83l9.18-6.32V96.7a26.8,26.8,0,1,1,53.59,0V334.52l9.19,6.32a63.5,63.5,0,0,1-36,115.83Z"/><path class="cls-5" d="M101.46,456a63.48,63.48,0,0,1-36-115.78l9.2-6.33V96a26.77,26.77,0,0,1,53.54,0V333.86l9.19,6.33a63.48,63.48,0,0,1-36,115.78Z"/><path class="cls-6" d="M100.79,455.28A63.45,63.45,0,0,1,64.84,339.54l9.21-6.33V95.36a26.74,26.74,0,1,1,53.48,0V333.21l9.21,6.33a63.45,63.45,0,0,1-35.95,115.74Z"/><path class="cls-7" d="M100.12,454.58A63.42,63.42,0,0,1,64.19,338.9l9.21-6.35V94.69a26.72,26.72,0,0,1,53.44,0V332.55l9.21,6.35a63.42,63.42,0,0,1-35.93,115.68Z"/><path class="cls-8" d="M99.45,453.88A63.4,63.4,0,0,1,63.53,338.25l9.23-6.35V94a26.69,26.69,0,0,1,53.38,0V331.9l9.23,6.35A63.39,63.39,0,0,1,99.45,453.88Z"/><path class="cls-9" d="M98.78,453.19A63.37,63.37,0,0,1,62.88,337.6l9.24-6.36V93.35a26.66,26.66,0,0,1,53.32,0V331.24l9.24,6.36a63.37,63.37,0,0,1-35.9,115.59Z"/><path class="cls-10" d="M98.11,452.49A63.35,63.35,0,0,1,62.22,337l9.26-6.36V92.68a26.64,26.64,0,1,1,53.27,0V330.59L134,337A63.35,63.35,0,0,1,98.11,452.49Z"/><path class="cls-11" d="M97.44,451.79A63.31,63.31,0,0,1,61.57,336.31l9.26-6.38V92a26.61,26.61,0,0,1,53.22,0V329.93l9.26,6.38A63.31,63.31,0,0,1,97.44,451.79Z"/><path class="cls-12" d="M96.77,451.1A63.29,63.29,0,0,1,60.91,335.66l9.28-6.38V91.34a26.58,26.58,0,0,1,53.16,0V329.28l9.28,6.38A63.29,63.29,0,0,1,96.77,451.1Z"/><path class="cls-13" d="M96.1,450.4A63.26,63.26,0,0,1,60.26,335l9.29-6.39V90.67a26.56,26.56,0,0,1,53.11,0v238L132,335A63.27,63.27,0,0,1,96.1,450.4Z"/><path class="cls-14" d="M95.43,449.7A63.23,63.23,0,0,1,59.61,334.36l9.3-6.4V90A26.53,26.53,0,1,1,122,90V328l9.3,6.4A63.23,63.23,0,0,1,95.43,449.7Z"/><path class="cls-15" d="M94.76,449A63.21,63.21,0,0,1,59,333.72l9.31-6.41v-238a26.5,26.5,0,0,1,53,0v238l9.32,6.41A63.21,63.21,0,0,1,94.76,449Z"/><path class="cls-16" d="M94.09,448.31A63.18,63.18,0,0,1,58.3,333.07l9.32-6.42v-238a26.48,26.48,0,0,1,52.95,0v238l9.32,6.42a63.18,63.18,0,0,1-35.8,115.24Z"/><path class="cls-17" d="M93.42,447.62a63.16,63.16,0,0,1-35.78-115.2L67,326V88a26.45,26.45,0,0,1,52.89,0V326l9.34,6.42a63.16,63.16,0,0,1-35.79,115.2Z"/><path class="cls-18" d="M92.76,446.92A63.12,63.12,0,0,1,57,331.78l9.35-6.44v-238a26.42,26.42,0,0,1,52.84,0v238l9.34,6.44A63.12,63.12,0,0,1,92.76,446.92Z"/><path class="cls-19" d="M92.09,446.22A63.1,63.1,0,0,1,56.33,331.13l9.36-6.44v-238a26.4,26.4,0,0,1,52.79,0v238l9.36,6.44A63.1,63.1,0,0,1,92.09,446.22Z"/><path class="cls-20" d="M91.42,445.53a63.07,63.07,0,0,1-35.74-115L65.05,324V86a26.37,26.37,0,0,1,52.73,0V324l9.37,6.45a63.07,63.07,0,0,1-35.73,115Z"/><path class="cls-21" d="M90.75,444.83A63,63,0,0,1,55,329.83l9.38-6.45V85.31a26.34,26.34,0,0,1,52.68,0V323.38l9.38,6.45a63.05,63.05,0,0,1-35.72,115Z"/><path class="cls-22" d="M90.08,444.13A63,63,0,0,1,54.37,329.19l9.4-6.47V84.65a26.31,26.31,0,1,1,52.62,0V322.72l9.39,6.47a63,63,0,0,1-35.7,114.94Z"/><path class="cls-23" d="M89.41,443.44a63,63,0,0,1-35.69-114.9l9.4-6.47V84a26.29,26.29,0,1,1,52.57,0V322.07l9.41,6.47a63,63,0,0,1-35.69,114.9Z"/><path class="Graphic-Style" d="M88.74,442.74A63,63,0,0,1,53.06,327.89l9.42-6.48V83.31a26.26,26.26,0,0,1,52.52,0v238.1l9.41,6.48A63,63,0,0,1,88.74,442.74Z"/></g><path class="cls-26" d="M88.74,443.31a63.54,63.54,0,0,1-36-115.89l9.17-6.31V83.31a26.83,26.83,0,1,1,53.65,0v237.8l9.17,6.31a63.53,63.53,0,0,1-36,115.89Z"/><path class="cls-27" d="M88.74,440.48a60.71,60.71,0,0,1-34.4-110.73l10.4-7.15V83.31a24,24,0,0,1,48,0V322.6l10.39,7.15A60.71,60.71,0,0,1,88.74,440.48Z"/><path class="Graphic-Style" d="M135.09,283.78h-8.47a1.42,1.42,0,0,1,0-2.83h8.47a1.42,1.42,0,0,1,0,2.83Z"/><path class="Graphic-Style" d="M135.09,255.54h-8.47a1.41,1.41,0,0,1,0-2.82h8.47a1.41,1.41,0,1,1,0,2.82Z"/><path class="Graphic-Style" d="M135.09,227.31h-8.47a1.42,1.42,0,0,1,0-2.83h8.47a1.42,1.42,0,0,1,0,2.83Z"/><path class="Graphic-Style" d="M135.09,199.07h-8.47a1.41,1.41,0,0,1,0-2.82h8.47a1.41,1.41,0,0,1,0,2.82Z"/><path class="Graphic-Style" d="M135.09,170.84h-8.47a1.42,1.42,0,0,1,0-2.83h8.47a1.42,1.42,0,0,1,0,2.83Z"/><path class="Graphic-Style" d="M135.09,142.6h-8.47a1.41,1.41,0,0,1,0-2.82h8.47a1.41,1.41,0,1,1,0,2.82Z"/><path class="Graphic-Style" d="M135.09,114.37h-8.47a1.42,1.42,0,0,1,0-2.83h8.47a1.42,1.42,0,0,1,0,2.83Z"/><path class="Graphic-Style" d="M135.09,86.13h-8.47a1.41,1.41,0,0,1,0-2.82h8.47a1.41,1.41,0,0,1,0,2.82Z"/><path class="Graphic-Style" d="M135.09,57.89h-8.47a1.41,1.41,0,0,1,0-2.82h8.47a1.41,1.41,0,0,1,0,2.82Z"/></g></g></g></svg>